<?xml version="1.0" encoding="UTF-8"?>
<svg id="Warstwa_1" xmlns="http://www.w3.org/2000/svg" version="1.1" viewBox="0 0 300 300">
  <!-- Generator: Adobe Illustrator 30.2.1, SVG Export Plug-In . SVG Version: 2.1.1 Build 1)  -->
  <g>
    <path d="M297.64001,108.70001l-18.46002-4.04999-61.07001-13.39001,1.73999-48.35004-3.20996-3.56995-131.52002-3.52002-3.33997,3.38-.77002,49.5L2.51001,103.15997l-2.51001,3.73004,12.95001,71.57001,3.60999,2.67999,41.97998-7.70001,4.59003,23.51001-4.66998,3.77997-8.01001,7.40002-.04004.13c-.09998.35999-.26996.78998-.44995,1.23999-.41003,1.06-.88,2.26001-.85004,3.23999l.78003,29.69-12.73004,20.70001.73004.65002c5.83997-4.71002,10.57001-9.70001,15.57001-14.98004.88995-.94,1.77997-1.88,2.67999-2.82001l.14001-.14996-.14001-11.16003-.62-19.45001c-.05005-1.26996-.11005-2.83997.72998-3.60999,3.62-3.35999,7.04999-6.53998,11.03003-9.53998.40997-.31,1.25995-.58002,1.94995-.78998.23004-.08002.45001-.15002.65002-.21002l9.92999,2.41998c.09003.02002.28998.21002.46002.63.19995.48999.22998.95001.19995,1.16003l-9.09998,3.01996c-1.84998.62-3.45001,1.72003-5,2.78003-.88.60999-1.79999,1.23999-2.76001,1.77997l-1.65997.92999,1.89996.01001c.70001,0,1.40002.02002,2.10004.04999.70001.03003,1.39996.06,2.08997.06,1.26001,0,2.27002-.09998,3.17999-.31l12.03003-2.76996,1.5.94c.39001,1.76001.45001,3.26996.19,4.82996l-8.94,3.79004c-1.44.60999-2.73999,1.57996-3.98999,2.51996-.60999.46002-1.23999.94-1.88,1.36005l-1.5.98999,1.79999-.08002c.27002-.01001.53998-.02002.79999-.02002.42004,0,.84003.02002,1.26001.03003.41003.01001.83002.02002,1.25.02002.72998,0,1.69-.03003,2.65002-.26001l11.37-2.75c.46997,0,1.41998.62,1.56.89996,1.14996,2.19.81,3.13.04999,5.20001-.07001.21002-.15002.41998-.22998.65002l-9.48999,3.97998c-.95001.40002-1.82001.98999-2.66003,1.57001-.59998.40997-1.16998.78998-1.76001,1.12l-1.32001.71002,1.48004.21997c.85999.12,1.66998.17999,2.46997.17999,2.04004,0,3.67004-.39996,5.23999-.77997,1.58002-.39001,3.07001-.76001,5-.77002.58002.26001,1.12,1.19,1.34003,2.29999.22998,1.17004.02997,2.23999-.5,2.72003-2.59998,2.33002-5.47998,3.98999-8.53003,5.73999-1.45996.84003-2.96997,1.71002-4.44995,2.65997l-.58002.38,2.08002,1.67004-1.25,6.31995-3.05005,7.46002,4.29004-1.17999c.01001-.01001.01996-.01001.01996-.01001l7.43005-6.54999,1.19-6.40997,7.98999-5.83002.04999-.07001c2.62-3.91003,1.62-7.60999,1.02997-9.83002-.19995-.75-.38995-1.45996-.31995-1.77997l1.58997-7.01001c.29999-1.33002-1.23999-7.52002-4.83002-9.47003l-.23999-10.14996-4.26001-2.04999c-.21997-.54004-.39996-1.09003-.57996-1.63-.63-1.85004-1.22003-3.61005-2.98004-4.69l-.06-.04004-10.46997-2.77997-4.47003-23.35999,37.75-6.89001,2.54004-3.72003-5.29004-28.72998,41.71002,1.06-.91998,39.29999c-.17999.10004-.61005.23999-.90002.23999l-.16998-.02997-.15002.08002c-3.94,2.13995-7.51996,4.25995-10.96997,6.5l-6.62,4.31-.06.08997c-.81,1.29999-1.84003,3.27002-2.39001,4.59003l-.03003.06-2.57001,18.47998-3.12,21.41998c-6.33997,10.78003-12.97998,22.35004-18.35999,34.87l.83002.53003c4.40997-4.84003,8.46997-9.94,12.77997-16.03003l10.96002-15.48999,5.73999-39.88995.07001-.53003c.15002-1.17999.33002-2.65997,1.17999-3.25,4.85004-3.34998,9.73999-6.26001,14.95001-8.90002.58002-.28998,1.35999-.44,2.12-.56995.44-.08002.89001-.16003,1.31-.27002l10.47998,4.58002c.39001.73999.63,1.76996.48004,2.35999l-10.65002,1.57001c-2.21997.32996-4.25,1.31-6.20996,2.26001-.96002.45996-1.95001.94-2.93005,1.32996l-1.72998.67999,1.84003.28003c.73999.10999,1.47998.23999,2.21997.38,1.72998.32001,3.52002.64001,5.31.64001.22998,0,.46002,0,.69-.01001l13.20001-.66003,1.51001,1.16003c.22998,2.17999,0,4.07001-.67004,5.76001l-10.53998,2.40997c-1.54999.35999-2.96002,1.09998-4.32001,1.81-.82001.42999-1.66998.88-2.51996,1.22003l.12994.94995c.79004.10004,1.57001.24005,2.33002.37,1.41998.25,2.76001.48004,4.14001.48004.22998,0,.46002-.01001.67999-.02002l12.44-.76001.10999.08002c.45001.32001,1.41003.98999,1.53003,1.34998.83002,2.39001.20996,3.5-.73004,5.17999-.22998.40002-.45996.82001-.69995,1.29004l-10.48004,2.21997c-1.15997.25-2.16998.75-3.25,1.27002-.72998.35999-1.48999.72998-2.32996,1.03998l-.75.27002,1.07001,1.03998.15997.02002c.44.08002.89001.17999,1.34003.28003.88995.20996,1.81995.41998,2.71997.41998h.25l5.40997-.25c.26001-.01001.51001-.01001.77002-.01001.97998,0,1.94.08002,3.07001.28003,1.01001,1.73999,1.32001,4.81-.47998,5.98999-2.22003,1.45996-4.80005,2.39996-7.28003,3.31-1.02997.38-2.04999.75-3.04999,1.15997l-4.53003,1.84003-.08997.04999-.04999.03998c-.11005.08002-.31.23004-.31.51001l.04999.31.20001.15002c.29999.22998.44995.33002.56.38l2.87,1.26996c-.23999.77002-.42999,1.53003-.60999,2.27002-.35004,1.39001-.67004,2.71002-1.25,3.91998-1.44,2.98004-3.53003,5.55005-5.55005,8.04004-.85999,1.04999-1.75,2.13995-2.57996,3.25l-.05005.07001-.02997.08997c-.73999,2.63-1.38,5.23999-1.85999,7.60999l7.12-.01996c.09998-.29999.19-.59003.26996-.85004q1.11005-3.57996,3.44-6.16998c.48004-.52997,1.06-1.17999,1.77002-1.97998l5.64001-.96002,2.26996-2.90002,4.28003-14.35999c.32001-.15997.65997-.28998.98999-.42999.82001-.33002,1.66003-.67999,2.35999-1.25,1.15002-.94,2.37-2.78998,2.89001-4.39001.54999-1.66998.41998-3.39996.29004-5.07001-.10004-1.27997-.19-2.47998.01996-3.62.19-1.03998.67999-1.83997,1.23999-2.75995,1.30005-2.12006,2.91003-4.76001,1.13-11.60004-.32996-1.01001-1.10999-1.81-1.85999-2.57001-.39001-.39996-.77002-.78998-1.06-1.17999l1.59003-11.20001-4.26001-3.07996-1.21002-5.52002c-.15997-.71002-.96002-1.51001-1.81-2.28003l-.04999-.04999-9.60999-4.51001,1-40.04999,40.21997,1.08002-6.41998,28.31,2.58002,3.83002,39.08997,8.51001-4.06,18.27997-2.96002.21002-4.28998,1.44-11.73999,5.03998-2.91003,3.66998-10.25995,33.02002c-6.34003,7.09003-12.49005,14.71997-18.77002,23.33002l3.27997-.01001c7.37006-6.12,14.23004-12.32001,20.89001-18.87l.09003-.09003,9.94-32.35999c.32001-1.02002.83997-2.72998,1.72998-3.16998,3.23999-1.60004,6.54999-3.01001,11.09998-4.72003,1.01001-.38,2.55005-.95001,3.85004-.95001.5,0,.92999.09003,1.26001.26001,2.51001,1.33002,4.69995,2.91003,7.01996,4.58002.51001.37,1.02002.73999,1.5,1.08002.20001.19995.16003,1.21997-.01996,1.70996l-9.31-.28998-.28003-.01001c-1.56,0-3.08997.41998-4.58002.82001-1.19995.33002-2.44995.66998-3.69.77002l-.08997.01001-.09003.03998c-.35999.17999-.76996.38-.69.82001.08002.44.55005.5.78003.51996.77997.22003,1.57001.52002,2.33997.81,1.29004.48004,2.62006.98004,4,1.16003l12.10004,1.52002,1.14996,1.31c-.26996,1.56-.78998,3.07996-1.59998,4.63l-10.09003.52997c-1.38995.07001-2.76996.5-4.08997.91998-.82001.25-1.58002.49005-2.34998.65002l-.03003.96997c.75.21002,1.48999.5,2.21002.79004,1.13995.45001,2.22998.87,3.35999,1.01001l11.70001,1.34998c.97998.94,1.10999,1.31,1.13,1.40997.35999,2.18005-.33002,3.04004-1.38,4.35004-.25.31-.51001.63-.78003,1l-9.87.40997c-1.16998.05005-2.35999.39001-3.51001.73004-.64001.19-1.25.35999-1.82996.47998l-1.34003.27997,1.20001.65002c2.72998,1.47998,4.83997,1.72003,7.07996,1.97003,1.59003.17999,3.23004.35999,5.28003.98999.32001.27997.46002,1.01996.34003,1.91998-.18005,1.41998-.92004,2.83002-1.61005,3.07001-3.01996,1.06-6.10999,1.70001-8.45996,2.13l-7.09003,1.31,1.31,2.76001-5.52997,10.66998,7.19995-.01001,5.05005-3.31,2-4.92999,9.29999-2.96002.08002-.07001c3.19995-2.71997,3.51996-4.69,3.98999-7.66998.13-.85999.28998-1.82001.51996-2.90997l3.83002-5.57001c1.02002-1.48999.94-3.52002.85004-5.48999-.02002-.55005-.05005-1.10004-.04004-1.62v-.13l-1.88-3.42004,3.17004-9.76996-3.14001-3.19c-.02002-1.82001-.08002-3.79004-.32001-5.85999l-.02002-.16003-1.41998-1.53998-5.15002-3.86005,4.57001-20.18994,39.97003,8.81.16998-.08002c1.17999-.65002,2.37-1.44,3.53998-2.35999l.14001-.11005,4.90002-22.60999,10.47998-48.65997-2.35999-3.82001ZM19.66998,172.65002l-11.39996-62.63,72.59998-13.38-.53998,31.72998,3.20996,3.39001,12.20001.31,4.76001,25.77997-80.83002,14.80005ZM158.53003,125.53998l-70.08002-1.76996.51001-29.57001.95996-50.06,121.67004,3.33997-2.75,79.41003-50.31-1.35004ZM284.88,147.15002l-6.65002,30.63995-15.03998-3.27997-65.53003-14.41998,5.72003-25.22003,10.07001.16998,3.33002-3.28998,1.09998-32.57001,23.16998,5,50.64001,11.16998-6.81,31.80005Z" fill="#001139"/>
    <path d="M168.42888,105.4468c-.01752.87386,1.30689,1.85865,1.87714,2.24109l.12164.08174,10.5262.18878c.97506,0,2.02408-1.72485,2.17686-2.04257l.04574-.09634.93322-38.60059c.02238-.91813-1.3575-2.44739-2.23719-2.47853l-10.2148-.36054-.10315.04525c-.62085.26955-2.23719,1.22759-2.26444,2.40798l-.32016,13.50247-37.49027-.98236.27588-13.60805c.02092-1.03977-1.45481-2.07517-1.97348-2.3564l-.10704-.05741-10.27465-.19024c-.96144,0-2.42549,1.41929-2.44739,2.37246l-.89186,38.5568.02968.08515c.22382.64323,1.29668,2.23184,2.26979,2.25909l10.10678.28269.06763-.01752c1.08843-.27928,2.3963-1.10351,2.44593-3.4458l.25398-11.98684,37.46156.93322-.26761,13.26649Z" fill="#001139"/>
    <path d="M187.36924,99.49717l6.0197.17857.14013-.10753c1.69128-1.29424,1.88493-1.91169,1.94915-2.11458l.02044-.06763.50115-21.72822c.01557-.72838-.80477-1.53801-1.74382-2.34667l-.13526-.11629-6.64833-.17127-.14499.1231c-.73665.62523-1.31955,1.28305-1.73409,1.95499l-.07104.11531-.44471,21.83575c-.01849.95414,1.35166,2.41576,2.29169,2.44447Z" fill="#001139"/>
    <path d="M112.79766,71.19799l-5.64651-.10656c-.91765,0-2.37246,1.39739-2.39484,2.30093l-.54008,21.98999.11823.14353c.54543.66123,1.2125,1.37063,1.69906,1.80756l.14013.12602,6.18464.04817c.91765,0,2.0703-1.54239,2.25568-2.17248l.01849-.06325.46904-21.58128c.01606-.73568-.62961-1.46649-.82764-1.67327-.23257-.24231-.84223-.8072-1.47622-.81936Z" fill="#001139"/>
    <path d="M72.38,125.13c-.58002-1.47998-1.39001-2.84003-2.16003-4.16998-.73999-1.25-1.5-2.54004-2.03998-3.89001l-.04999-.12-4.66003-3.81-.06995-.03003c-2.56-1.04999-4.94-2.32001-7.26001-3.89996-.78003-.55005-1.73004-.85004-2.67999-.85004l-.20001.01001-11.17999.47998-9.71002,9.12-.03998.15002c-1.42999,6.94-1.70001,7.91003-4.90002,14.23999l-.07001.14001.02002.15997c.17999,1.20001.27997,2.45001.39001,3.66003.16998,1.96997.34998,4,.81,5.96002.39996,1.69995,1.13,3.31,1.83997,4.85999.47003,1.01996.96002,2.08997,1.33002,3.14996l.06.17999,10.33002,5.84003,9.12-.14001.81,4.39001c.14001.78003.64001,1.71002,2.19,1.71002.32001,0,.66998-.04004,1.07001-.12,2.71997-.54004,3.08997-1.76001,2.91998-2.70001l-.81-4.40002c3.56-1.07001,7.27997-2.45996,11.96997-4.45996l.16003-.07001,4.77002-8.92004.92999-9.15997-2.89001-7.31ZM68.21002,139.76001c-.44,1.42999-1.21002,2.82001-1.96002,4.15997-.33002.58002-.65002,1.16003-.95001,1.73999l-4.84998,1.89001c-.66998.26001-1.33002.47003-2.14001.65002l5.28998-7.91998-4.41998.84998-1.26001-2.39001-2.96997,3.60999-1.77002-9.54999-1.85999,3.76001c-.15002-.17999-.29999-.35999-.42999-.52002-1.02002-1.22998-1.83002-2.19995-3.22003-3.45996l-1.04999-.95001,1.10999,6.77002-1.32996-.58002-.87,1.41998-5.99005.14001,9.78003,7.04999.64996,3.47003-6.13995.21997-7.10004-3.90002c-2.57001-5.57996-2.69995-6.51996-3.01001-12.78998.21002-.79999.67004-1.58002,1.15002-2.40997.51001-.88,1.03998-1.78003,1.29999-2.76001l1.88-7.16998,1.03003-1c1.83997-1.79004,3.57996-3.48004,5.51001-5.02002,2.97998-.35004,4.98999-.54999,6.37994-.54999,2.10004,0,2.80005.44,4.49005,1.51996,1.08997.69,2.57996,1.63,5.02997,2.83002.54999.27002,1.35004.92999,2,1.47003.22003.17999.42999.34998.60004.48999,1.32996,2.27997,5.39996,9.51001,5.73999,12.63995.20996,1.88-.04004,4.41003-.62,6.29004Z" fill="#001139"/>
    <path d="M271.15997,134.89001l-.00995-.09003-2.74005-6.10999c-.75-1.69-1.94-3.13-3.08997-4.52002-.52002-.62-1.04999-1.26001-1.52002-1.90997l-1.26001-1.71002-.08997-.04999c-5.85004-3.53003-7.21002-3.84003-12.27002-4.98999-.83997-.19-1.77997-.40002-2.85999-.66003l-.08002-.01996-.08002.01001c-5.04999.47998-9.83997,1.81-15.07996,4.17999l-.07001.03998-.06.04999c-3.40002,3.15002-6.23999,6.39001-8.94,10.19l-.06.08002-.02002.10999c-.77002,4.08002-1.52997,8.46002-1.56,13.10004v.07996l2.63,8.37.04999.07001c2.63,3.59003,5.47003,6.90002,8.46002,9.83002l.07001.07001.07996.03998c4.87006,2.10999,9.12006,3.62,13.99005,4.16998h.06995l.06006-.00995c4.57996-.76001,9.12994-2.16003,13.92999-4.29004l.07001-.02997.06-.06c3.06995-2.86005,5.75-6.01001,8.44-9.92004.63995-.90997.82996-1.72998.98999-2.54999,1.01996-5.27997,1.28998-9.44.88995-13.46997ZM228.29999,133.87c.12-.83997.23999-1.64001.57001-2.17999,1.45001-2.31,3.28998-4.20001,4.95001-5.88l5.88,1.76001,1.60999,5.70001-3.81,5.75-5.59998.70996-3.83002-4.51996c.09998-.44.16998-.89001.22998-1.34003ZM240.09003,153.53003l-4.95001,1.38995c-1.78003-1.88-3.35999-3.75-4.95001-5.84998l2.34003-4.97003,5.10999-.62,3.87,4.96002-1.41998,5.09003ZM248.32001,121.38c.70001.16998,1.33002.29999,1.89996.42999,2.88.62,4.37006.95001,7.32001,3.07001l-.13995,6.39001-4.93005,3.07001-6.87-2.17004-1.60999-5.96997,4.33002-4.82001ZM254.90997,156.63c-2.77997,1.15002-5.14996,1.83002-7.40997,2.14001l-3.22998-3.91003,1.34998-5.13,5.82001-1.60999,4.19,3.41998-.72003,5.09003ZM264.27002,146.44l-5.72003,1.72998-4.33997-3.44.32996-6.57001,5.06-3.07996,5.45001,2.70001c.26001,2.72998,0,5.63995-.77997,8.65997Z" fill="#001139"/>
  </g>
  <path d="M1364.64697,452.64703l-63.98022-12.34344,3.8938-32.7124,2.97998-54.70886h51.93005l35.76477-31.29413h-61.19336l.63208-56.64978c.02002-1.79224-1.45581-4.30493-2.6637-5.86914l-94.49695-85.4502-91.33691-54.59259-26.87061-51.5304c17.67822-39.97357,10.99268-23.96545,6.35913-57.29218-.24353-1.7514-2.91089-4.547-4.19812-5.53796l-16.40051-12.62579c3.09509-19.72913.10645-23.79138-4.11548-42.83289l-18.8783-17.11914,3.10437-20.6283c-4.26099-9.2066-6.07324-19.79248-11.36694-27.82819-6.12207-6.50366-14.89355-9.55731-22.57178-15.22284l2.92407-15.50244-11.44531-27.31726c-.87146-2.07996-3.84766-5.3222-5.93469-6.17737l-28.39227-11.63373-52.56653-120.42505v47.64703l25.51105,76.08386c-.1297-.0473-.26117-.08582-.39044-.13501-.13135-.04999-.25708-.10846-.38702-.16064-28.21875,13.45349-55.26196,27.19836-82.46979,42.03961-6.91132,5.03241-13.56757,9.46027-20.08942,14.96143l-40.7843,34.40155-25.15863-88.76031-46.45691-66.72717c5.40674,24.35413,9.56207,47.20966,17.11847,70.17462l21.62128,65.71063-25.9953,29.09204-9.10223,122.8642,16.17761,68.50641-22.82971,74.40198-10.92841,36.69757c-13.13531,3.10504-27.66705,11.18292-39.97192,17.0329l-3.02002,17.09418-25.698,13.51245-6.57324,23.55017.71155,9.28986-17.82526,13.35931c-2.78943,14.02319-6.66571,21.42657-2.93573,34.9422l-15.38763,17.09784-.59143,23.91492,6.00018,13.90308c.19232.05054.37976.11987.57117.17426-11.86469,10.32733-29.11591,25.44867-29.11591,25.44867l27.29413-2.35297,20.46289-7.72186c.07025.15948.15173.3161.2182.4765l51.79871,35.82361c9.20508,6.36621,21.3479,7.38629,31.39783,12.96295l-11.75446,30.91791c.01917-.00208.03888-.00275.05811-.00482l-9.82837,26.36926v22.58826l34.49725-37.85889,10.50708,1.17902,70.52277-30.26819c17.49152-7.50739,30.0434-22.29022,46.77374-32.33478l85.94586,4.73602c2.20227,8.24591,3.18286,17.33649,6.64252,25.3028,27.12396,22.10785,23.1424,21.96381,57.74493,21.39288,8.96118,5.40155,15.99487,15.12238,26.10571,18.99854,9.3606,3.58856,20.90137,4.79102,30.91724,5.0238,7.823.18182,14.63403-5.73492,22.19031-6.49078,7.22791,3.98163,13.42126,12.40881,21.34998,14.95892,33.95874,4.2851,28.25903,4.12988,57.46948-7.58667,22.17517,16.33075,16.71277,10.40668,44.84888,13.36438l.79297.85535c2.92822-4.1698,6.99731-7.63391,11.88794-9.89478,4.51611-2.08777,9.42371-2.57324,14.15552-1.80066l6.04517-6.5802,19.0481-26.91162,2.69995-22.68237,91.26636,20.83252-24.23535-34.11768ZM803.935,127.71582l7.59406-24.54266-15.55853-71.07208,7.56964-102.7356,11.55212-18.5141,13.0766,34.90961,83.94916-72.67554,88.32452-42.63641,22.96191,8.49072c5.95099,15.11102,8.08063,11.34314,3.6524,27.93854l-30.71118,20.36694c-11.58319,7.6817-21.90961,15.78149-32.94946,24.62494,12.2121-2.73273,23.23254-5.98456,34.87628-9.7356l40.72211-13.11853,16.65686,9.12213c6.55652,16.69672,6.71118,11.56781,2.65808,29.79932l-48.32983,30.71021-25.90643,17.508c12.04388-2.66101,22.52191-5.97858,33.85529-9.53278l49.69153-15.58344,13.16138,10.24048,2.94861,13.77667-1.63647,13.5542-75.31262,48.77277,84.64307-25.56146,12.68774,8.64099c4.32715,19.00903,4.8064,12.38104-2.97021,30.51807l-92.84607,73.89795-44.34302,32.71558c-8.96002,6.61053-18.98621,10.4563-28.51208,16.51202l-53.08142,94.31232c-9.36133-5.40845-16.60333-13.95923-26.23132-18.0517l-81.04224-34.44745,28.84955-88.2041ZM969.52002,391.96979c-1.42212,10.47424,3.52301,20.68231,3.21289,31.13055l-89.5708-4.43805-50.8974,36.41345-64.05884,26.4126c1.28131-5.29303,2.64594-8.9978,4.27551-13.28809l17.05945-16.34113-60.52704-22.4845-60.6037-42.55322c-3.78131-2.65509-7.13141-4.21204-6.98553-8.53278l.34521-10.22235,9.90594-10.20966,26.28638,8.30157c9.13892,2.88623,17.92975,5.12677,27.97626,7.48541-7.67072-6.5011-14.89929-13.10419-23.34186-18.8299l-25.5528-17.33002c-1.21674-5.28149-1.30389-14.08942,2.56305-17.76331,3.25061-3.08838,7.77625-5.17755,11.23053-7.18884,21.58105,6.61066,41.41962,13.37219,63.93073,18.62445-8.98792-7.3363-17.05896-14.30945-26.56659-20.08179l-29.07141-17.65002c-1.50153-4.70404-.79303-12.78845,3.29517-16.26691,3.66687-3.11993,9.20972-5.07208,13.78906-7.29999l39.55328,12.90472c8.05591,2.6283,15.80762,4.47412,24.56232,6.31702-8.51465-7.19934-15.87939-14.35895-24.98389-20.09674l-23.41541-14.75677c-.37256-1.99097.15729-5.68005,1.33643-7.21149,18.59637-7.91559,11.06549-9.13867,33.0155-8.76703l78.71338,32.93237,32.07629,27.14197,20.99353,24.04834,80.18762,5.27704-8.73328,64.32306ZM981.55664,303.099l-74.10858-4.32935c-2.55353-2.18164-5.33246-5.71289-7.63452-9.02808l55.86145-98.24469,30.68073,63.20178-4.79907,48.40033ZM1279.37622,403.99872l-8.07666,74.59369-16.11633,23.74561c-16.91711,8.31842-13.61548,5.97949-32.76843,4.69165l-8.95081-9.21625,4.25403-102.30884-29.12561,101.00574c-22.34265,10.95111-13.51599,9.48822-40.03284,7.62268l-13.38574-12.38452,4.87085-78.66199.91016-21.46838c-2.80078,7.66254-5.25879,14.61432-7.63794,22.52478l-22.40381,74.49396c-5.04443,1.67657-10.50269,5.40796-15.85547,5.72406-5.83203.34448-13.3623-.65936-18.76208-2.71106-5.57898-2.11975-9.29456-8.08289-14.36462-11.52856l1.34644-31.15619c.87622-20.27734,2.39258-39.56116,1.79688-60.49481l-25.01831,79.29773c-2.9187,1.5791-7.19727,2.96039-10.55103,2.80865l-11.94708-.54041-13.97797-11.51642-8.67108-66.5423,10.94171-83.55267,6.53021-58.5401-33.48511-69.74451,43.53339-33.10168,77.88293-63.92059,28.27795,54.93872,93.31055,55.22491,87.32861,79.59656-.44287,47.09656-5.04468-3.40247-9.10706-23.0957c-3.76233-9.54114-12.68933-16.18689-19.82568-24.70697.47815,11.71326,1.7533,22.52643,2.77649,34.16577l4.38647,49.90741-2.59546,51.15594Z" fill="#001139"/>
</svg>