<?xml version="1.0" encoding="UTF-8"?>
<svg id="Warstwa_1" xmlns="http://www.w3.org/2000/svg" version="1.1" viewBox="0 0 300 300">
  <!-- Generator: Adobe Illustrator 30.2.1, SVG Export Plug-In . SVG Version: 2.1.1 Build 1)  -->
  <path d="M203.26064,126.50732l19.28858-16.27533,2.63355-5.54911-2.21666-9.95002-7.9067-4.61934c-10.71361,4.60615-20.60814,9.43504-31.66479,13.48229,9.2885-8.19011,18.7432-15.17256,28.53054-22.25198l.99746-5.50491-3.46277-7.29208-8.90077-2.97101-33.8663,14.23591,23.65575-21.27074-2.12164-4.73087-5.73493-5.19342c-3.68829.05756-7.44232-.67328-11.1161-.2911l-7.44034,3.95644-23.06412,11.61149-18.3361,9.17248,8.15823,8.33848,14.14934,2.14977,17.73087-8.67356-11.131,15.47117-5.01058,1.95959-.47894,17.17986-8.97599,8.96723c-.73307.73235-2.47724.55476-3.66134.65474l-.4352,15.56781c-.01309.46828-.37153,1.4263-.70965,1.7454l-8.80826,8.3125-5.5076.12115-.77814,10.77451c-.09901,1.37096-.4801,2.2746-1.45588,3.18659l-7.01576,6.5571c-.48759.45571-1.58321.7812-2.25426.77882l-8.68505-.03082-4.05563,9.03343c-.4609,1.0266-1.19488,2.4293-2.42935,2.655l-11.28474,2.06321-22.497-9.60759-18.56248,13.38741-24.1766,16.1387C9.86151,202.99987,5.29232,206.02202,0,208.73958c9.42634-9.43296,19.11322-17.87117,28.76793-26.71074l5.04758-4.62142,17.80691-14.22321-1.67855-7.90639c-.11254-.53011.08813-1.62389.37523-2.12594l6.09365-10.65586-2.45999-12.09825c-.10904-.53626-.1076-1.71079.16742-2.12981l9.10718-13.87524-2.89124-9.41515c-.1951-.63533.14008-1.87848.45782-2.55865l6.52861-13.97561,10.30172-5.82784-.91718-10.92398,9.66929-13.20929c.5786-.79043,1.53248-1.32978,2.53454-1.32923l13.30069.00725,21.99009-17.26358,22.82367.0016,10.33582,5.83016c3.67716-1.35267,7.17512-3.76769,10.56734-5.75364l18.12042-.06951c3.05946,2.9022,6.22191,5.50856,8.92538,8.68027,1.99512,2.34068,2.92925,5.35981,4.68549,7.95033.71572.17514,1.99275.21305,2.71235.46373l12.66177,4.41092c.92809.32331,1.50716,1.75004,1.89095,2.5862l5.10006,11.11133-1.35635,8.0943,8.18787,4.98669c1.10623.67373,2.01641,1.45807,2.29044,2.80598l3.04951,15.00007-3.10594,6.59647,6.22643,5.37226c.83566.72102,1.22456,1.77052,1.38141,2.86457l1.77524,12.38277c.122.85099-.08533,1.82452-.5978,2.44259l-4.52343,5.45551,4.61576,11.56432,16.3709,12.61921,19.33973,16.68211,24.06084,22.03117c.46484.58335.2826.53313-.34921.28682-10.38756-6.29046-20.31608-12.77842-30.25301-19.65463l-13.51256-9.3505-22.48734-16.346-4.56127-11.17107c-10.06428,9.2591-19.54219,18.65016-28.86324,28.46563-2.01814,2.12519-3.95473,4.27843-6.09848,6.14151l-20.46649,9.51706-8.03668,3.90424,36.3646,7.14231-7.40513,4.78462,19.58165,20.54129,28.91208,31.71657-34.63351-26.07287c-9.89734-7.45093-17.30489-17.53236-26.63239-25.95745l-23.8716-4.6514-8.85563-1.91277-16.19701,3.17779-31.90787,32.08772c-2.28084,2.2937-5.01572,3.65419-7.76854,5.62449l-24.42472,17.48169c-.00905.00648-.95847.54532-.72002.25803.07598-.09154.27364-.38899.42608-.55106l29.11972-30.96228,24.1542-25.08821-10.5225-2.65892,24.45815-5.35769c5.63776-1.23498,11.35913-1.64877,16.81976-3.63277,8.36446-3.03904,16.10555-6.98193,24.25704-10.65013,3.84295-1.72934,8.19916-2.95163,11.51823-5.53057,4.98925-3.87668,8.91234-8.78937,13.42195-13.24015l13.44391-13.26852,14.03662-12.70612c1.1414-1.03321,1.79015-2.73181,2.91053-3.95751l-1.30374-9.01876-5.68119-4.80266-16.14519,6.28196c-1.68554.65583-3.17694,1.26465-5.20614,1.63161ZM141.38634,54.50086l6.57532-3.73022-3.72966-2.17844-16.66687-.00073-16.61886,13.13781,7.00593,4.56231,23.43415-11.79073ZM137.6326,105.39923l.0312-12.90899-10.65146-3.23087-10.45996-10.14771-6.80631-5.42015-9.00402-7.81254-9.07329.01632-6.05709,8.27428.83667,7.00768c7.60461,5.99571,14.70894,11.99388,21.87152,18.37067,2.86445,2.5502,5.8435,4.5615,8.79548,6.97296l2.71237,2.21572,12.88597,1.909,4.91892-5.24636ZM124.44009,131.73816l.15535-12.20496c-2.34183-1.74875-5.15561-2.19527-7.79309-3.41414-2.39614-1.10733-4.28231-3.42065-6.43513-5.06036l-14.79329-11.2675c-4.36523-3.32484-8.48737-6.49736-13.11336-9.66247l-8.56275,4.50139-4.56981,9.82563,2.05711,6.67678,27.24275,17.35018,10.89185,7.25501,10.24122.53153,4.67916-4.53109ZM104.36497,157.57133l4.35599-4.38178.37089-8.76411c-1.9804-1.89072-4.60632-2.28573-6.88078-3.69528l-30.81208-19.09512c-.86559.02554-2.01084.25155-2.78271.49514l-5.74275,8.52477,1.60379,8.08631,25.88565,14.80502c6.67283,3.81646,2.63651,4.14964,14.002,4.02504ZM80.88965,170.79543l5.75735-1.14408,2.80012-6.47371-26.22883-14.90076-4.31988,7.32274,1.42454,6.42429,20.5667,8.77152Z" fill="#001139"/>
</svg>