<?xml version="1.0" encoding="UTF-8"?>
<svg id="Warstwa_1" xmlns="http://www.w3.org/2000/svg" version="1.1" viewBox="0 0 300 300">
  <!-- Generator: Adobe Illustrator 30.2.1, SVG Export Plug-In . SVG Version: 2.1.1 Build 1)  -->
  <path d="M53.10498,292.25684l3.97119-10.65527-.0083.00098,3.83057-10.0752-.75732-.41992c-1.6875-.9375-3.51025-1.51855-5.27295-2.08105-2.06641-.6582-4.01807-1.28125-5.6582-2.41504l-17.94824-12.41406-.32471-.68359-.89648.25-7.04932,2.66016-6.39697.55078c2.14258-1.875,5.38037-4.70703,7.9165-6.91504l1.40283-1.2207-1.52881-.42383-1.83057-4.24121.19287-7.80078,5.51709-6.13086-.146-.52734c-.94043-3.4082-.40186-5.625.34326-8.69336.20459-.8418.42188-1.73828.62695-2.72656l6.38818-4.78809-.27783-3.62988,2.14209-7.67676,9.06738-4.76758,1.05566-5.97461c.75977-.36523,1.54199-.75195,2.33984-1.14648,3.50684-1.73438,7.48096-3.69922,11.0166-4.53516l.56348-.13379,3.99902-13.42773,8.08594-26.35156-5.70215-24.14648,3.15674-42.6084,9.27734-10.38281-7.76562-23.6001c-2.06055-6.26221-3.38672-12.46777-4.79102-19.0376-.04248-.19678-.08447-.39355-.12646-.59082l13.34326,19.16553,9.20264,32.4668,15.49219-13.06738c1.64648-1.38867,3.30566-2.57031,5.0625-3.8208.61963-.44092,1.24463-.88623,1.87598-1.34521,9.19531-5.01465,18.50439-9.76367,28.44678-14.51123l1.74219.57275-.57324-1.87012-8.89795-26.53564V4.79053l16.68652,38.22656,10.33594,4.23486c.45312.18604,1.31641,1.09961,1.53711,1.62842l3.90039,9.30615-1.08789,5.76025.50586.37305c1.11035.81934,2.26758,1.47998,3.38574,2.11963,1.61914.92529,3.14941,1.7998,4.33887,3.03857,1.01172,1.56348,1.64062,3.4375,2.30664,5.41943.42969,1.2793.87305,2.59961,1.43555,3.86426l-1.12402,7.47363,6.7832,6.15234c.27148,1.20361.52734,2.23535.75586,3.16162.99316,4.0083,1.44629,5.8374.60742,11.18164l-.0918.58545,6.22266,4.79102c.42383.32568,1.02734,1.04492,1.0957,1.3042.45801,3.30322.97266,5.23535,1.34766,6.646q.8252,3.10449-3.14062,12.06982l-.55957,1.26416,9.78027,18.75488,32.19922,19.24609,33.00781,29.84668c.4209.56543.67676,1.14355.67383,1.36816l-.2334,20.88574h19.81738l-10.26074,8.97754h-18.78906l-1.09668,20.1377-1.46973,12.33594,22.96387,4.43066,6.75098,9.50391-30.54395-6.97266-1.04883,8.80957-6.49805,9.18164-1.72461,1.87695c-.36816-.04004-.73633-.06055-1.09961-.06055-1.37598,0-2.68945.28418-3.90332.84473-1.55664.7207-2.92871,1.77539-4.01074,3.07617-2.64355-.27441-4.47168-.3291-5.81055-.36914-3.54102-.10645-3.91113-.11719-9.34766-4.12109l-.44824-.33008-.5166.20801c-1.23926.49609-2.29883.93457-3.22656,1.31738-3.83203,1.58203-5.26562,2.17383-7.69922,2.17383-1.67969,0-3.87598-.27832-7.51562-.74023l-1.125-.1416c-1.3877-.47363-2.64941-1.56055-3.98535-2.70996-1.02637-.88379-2.08789-1.79785-3.24414-2.43457l-.27246-.15039-.30957.03125c-1.36328.13672-2.61133.6748-3.81836,1.19531-1.28711.55469-2.50293,1.07812-3.74219,1.07812l-.10059-.00098c-4.30273-.10059-7.83887-.6709-10.51074-1.69629-1.91504-.73438-3.50293-2.13086-5.18359-3.61035-1.2002-1.05566-2.44141-2.14746-3.81641-2.97656l-.24609-.14844-.62109.01074c-1.58789.02637-2.9375.04883-4.10742.04883-6.29199,0-6.89551-.5-12.67139-5.28027-.69189-.57324-1.45361-1.20312-2.30371-1.89746-.70166-1.69629-1.09961-3.59668-1.48535-5.43652-.21289-1.01758-.43311-2.06934-.70264-3.0791l-.18701-.70117-31.18115-1.71875-.26318.1582c-2.51514,1.50977-4.76709,3.31836-6.94531,5.06738-3.03418,2.43652-5.90039,4.7373-9.34277,6.21484l-24.49658,10.51367-3.93018-.44141-10.70605,11.75v-5.16113ZM221.57715,284.70117l3.70605,3.81738.38281.02637c1.39648.09375,2.44922.20312,3.29492.29199.94727.09863,1.63184.16992,2.28711.16992,1.77832,0,3.02637-.53906,6.42188-2.20898l.2373-.11719,5.94336-8.75488,2.85938-26.41602.91797-18.07129-1.54395-17.57715c-.09766-1.1123-.20215-2.2041-.30566-3.28613-.19043-1.99023-.37402-3.9043-.50977-5.8584.19238.19922.38379.39746.57422.59375,1.7793,1.83496,3.45996,3.56836,4.29492,5.6875l3.30957,8.39062,3.56836,2.40723.17676-18.82812-31.04199-28.29395-32.57324-19.27832-10.35547-20.11768-28.2793,23.2085-15.89111,12.08301,11.97607,24.94336-2.25928,20.25098-3.85303,29.42188,3.10986,23.86426,5.46631,4.50391,4.52344.2041c.07324.00293.22363.00488.22461.00488,1.43457,0,3.00586-.57324,3.99805-1.10938l.35645-.19238,6.95996-22.06152c-.06738,3.21973-.23047,6.38867-.39941,9.66699-.08594,1.67773-.17285,3.3623-.24609,5.06738l-.49609,11.48633.46094.31348c.64355.4375,1.2334,1.01953,1.8584,1.63574.99512.98242,2.02441,1.99805,3.3877,2.5166,1.6875.6416,4.03125,1.04004,6.11719,1.04004.30078,0,.59473-.00879.87793-.02539,1.39941-.08301,2.71582-.69336,3.98828-1.28418.64551-.29883,1.25488-.58203,1.83105-.77344l.49316-.16406,8.00879-26.62988c.14355-.47754.28711-.94434.43262-1.4043l-.0293.7041-1.7373,28.04883,5.30273,4.90527.35059.02441c1.36133.09668,2.45508.18848,3.35645.26562,1.37207.11621,2.27832.19238,3.04883.19238,1.83984,0,2.7168-.4541,5.06055-1.66797.7998-.41406,1.79395-.92871,3.08789-1.56348l.39746-.19434,8.03516-27.86426-1.16406,28.00586ZM67.04053,273.3584l-.08008.21094c-.59326,1.56152-1.0835,2.90527-1.5376,4.78223l-.46094,1.9082,24.39307-10.05762,17.66553-12.63965,32.09277,1.58984.03027-1.01953c.05273-1.77148-.29199-3.49609-.62549-5.16406-.39111-1.95703-.76074-3.80566-.51025-5.65137l3.20801-23.62695-28.78564-1.89453-7.14062-8.17969-11.42822-9.66992-27.93213-11.6875-.19189-.00293c-.77832-.0127-1.45117-.02051-2.03955-.02051-3.59424,0-4.23291.26953-6.10791,1.30078-.81201.44727-1.9248,1.05859-3.84326,1.87598l-.24121.10254-.15967.20703c-.60742.78906-.83496,2.38477-.65918,3.32422l.08057.42871,8.5835,5.40918c2.02588,1.27637,3.80713,2.76758,5.63281,4.35352-1.49707-.36914-3.04688-.7959-4.6416-1.31641l-14.25977-4.65137-.36328.17676c-.4082.19922-.83936.39062-1.27539.58496-1.33301.5957-2.71191,1.21094-3.77295,2.11328-1.8584,1.58105-2.04248,4.94824-1.46045,6.77148l.11377.35645,10.51855,6.38672c2.03174,1.2334,3.8877,2.63965,5.75049,4.13867-4.396-1.16895-8.56592-2.47656-12.91943-3.84277-1.68896-.53027-3.3916-1.06445-5.12646-1.5957l-.41846-.12793-.37793.21973c-.27344.15918-.56641.32031-.86914.48633-1.07129.58691-2.28564,1.25293-3.25635,2.17578-1.84277,1.75-1.58057,5.46191-1.18457,7.18066l.08838.38281,9.28906,6.29883c1.74561,1.18457,3.32568,2.46484,4.91504,3.8125-1.82373-.46875-3.71973-.99512-5.67871-1.61328l-9.81006-3.09863-4.17383,4.30273-.13428,3.9707c-.06299,1.86328,1.22412,2.72949,2.35938,3.49316.16748.11328.34033.22949.51611.35254l21.36523,15.00195,19.8584,7.37695-4.99463,4.78418ZM111.38281,211.375l.35938.5166c.71875,1.03516,1.79688,2.45703,2.84961,3.35645l.25586.21875,27.29199,1.59473,1.80615-18.2168-11.71582-24.13379-20.84717,36.66406ZM77.97314,154.18555l-10.40088,31.7998,29.2749,12.44238c1.79248.7627,3.35156,2.01172,5.00244,3.33398,1.28174,1.02637,2.60693,2.08789,4.09033,2.94531l.87598.50586,18.99316-33.74609c1.32666-.8291,2.70898-1.55469,4.04834-2.25781,1.93506-1.01562,3.93652-2.06641,5.80029-3.44141l15.55518-11.47656,32.79688-26.10303.09961-.23145c.44238-1.03174.80859-1.8335,1.10352-2.48096,1.34863-2.9541,1.36914-3.19482.56836-6.44043-.15918-.64404-.35156-1.42529-.57422-2.40039l-.08691-.3833-5.1709-3.52148-23.3916,7.06396,20.88672-13.52637.65039-5.38574-1.14551-5.35254-5.31836-4.1377-18.23926,5.72021c-2.00684.62939-3.95508,1.24072-5.94434,1.80957l4.32227-2.92139,17.28125-10.97998.43359-1.92383c.90527-3.97656.89453-4.17822-.37305-7.19629-.25781-.61475-.57227-1.36475-.94824-2.3208l-.13281-.33789-6.53906-3.58105-14.69434,4.73438c-2.2666.72998-4.84912,1.53418-7.70898,2.29932,2.52246-1.96631,5.10205-3.88672,7.89258-5.7373l11.08887-7.354.09766-.36621c1.20312-4.50684,1.12109-5.09326-.08008-7.61475-.33203-.69678-.74512-1.56348-1.23633-2.81104l-.16406-.41602-8.87354-3.28125-31.4873,15.19971-28.46338,24.64111-4.79443-12.7998-5.25635,8.4248-2.68457,36.43213,5.43262,24.81689-2.58643,8.35742Z" fill="#001139"/>
</svg>