<?xml version="1.0" encoding="UTF-8"?>
<svg id="Warstwa_1" xmlns="http://www.w3.org/2000/svg" version="1.1" viewBox="0 0 300 300">
  <!-- Generator: Adobe Illustrator 30.2.1, SVG Export Plug-In . SVG Version: 2.1.1 Build 1)  -->
  <path d="M146.03873,247.55117l-11.66527,2.00302-10.92227,12.99194c-.67087.79799-1.9702,1.39154-3.06092,1.5542l-34.93613,5.21025c-1.32053-.04766-2.32834-.41423-3.44679-1.19246l-42.55681-27.39424L0,164.25605l3.8721-37.15828c-.12256-2.20822.87556-3.93404,2.79681-4.92845l22.03273-16.4782,11.10423-31.71512c.66142-1.96333,2.18259-3.27823,4.29383-3.44108l28.87955-6.25606,7.72937-17.54975,15.92038-15.63489c1.19174-1.75736,2.96819-1.93486,4.91414-1.89694l37.4831.73043,23.45545-17.8761c1.12761-.85938,2.22338-1.31331,3.72576-1.38518l37.8469,3.23031c1.95279.01373,3.53081.58158,4.72691,2.1118l29.19415,30.66211,20.63557,72.86165,37.49984,35.21435c1.49053,1.18913,2.08128,2.7087,1.928,4.64963l1.95316,48.06063c.08483,2.08739-.50491,3.27856-1.69865,4.89716l-42.86953,58.12689c-.99866,1.35409-2.25652,1.7736-3.85538,1.99561l-49.27598,6.84214-41.20982,9.86422c-2.54862.61005-4.5094-.68779-5.58087-2.90113l-11.3617-23.47002c-.86076-1.77809-1.06466-3.21909-.59233-5.13842l2.491-10.12219ZM143.50175,98.09899l1.80165-36.1029c.1015-2.03388.90856-2.72902,2.40857-3.82779l20.54705-15.05103c16.38378-1.94082,12.34195-3.16251,28.65496,1.38052-4.48776,1.0143-9.32232-.37075-13.92507.88762-4.21621,1.1527-8.92148,2.79485-12.87917,4.50676l-15.07553,14.33362-.25855,32.5468,10.21103,13.34189c17.5539,6.87507,14.48078,5.85876,33.8404,5.44423,6.21263-3.684,11.98404-7.20515,17.56278-11.6343,1.31021-3.31455,3.7033-6.56929,4.28212-10.02513l3.78275-22.58485c1.11275,5.60012,4.35722,19.63295,4.08463,23.98407-.33369,5.32657-2.23594,10.33876-3.14337,15.57439l-10.15956,7.81408-13.01217,8.02842c-6.39256.54852-12.50972.15529-18.88817.37048l14.47737,32.00127,4.30196,3.23674,19.32872-37.2655c-1.48552,10.91216-1.65739,21.49921-5.30606,31.27865l-4.94582,13.25616,7.58288,5.75506c2.18952,1.66175,2.98376,3.62482,2.94158,6.73832,6.77995-5.48484,12.49762-11.36113,19.70875-16.44388l-24.47689,38.78174-38.47929,16.4308-8.28183,3.52217c-3.28123,5.74015-7.88843,10.73419-10.61639,16.82146-2.45904,5.48718-2.76206,11.64391-4.80017,17.44884l8.65402,18.24359c1.14935-.27712,2.16572-.5605,3.01636-.87836,2.10629-12.11535,2.99774-19.04986,8.49676-30.06275,7.19526-2.99387,14.12093-5.211,21.98584-6.21814,2.87107,4.44034,4.83459,9.25091,6.33464,14.34196.60467,4.51104,1.08649,8.71909.62626,13.36801l44.24701-6.1672,40.60215-55.15963-1.89425-44.48176-38.17398-35.97945-5.76198-20.24948-5.22741-19.13305-9.63471-33.56385-26.08726-27.46539-34.20717-2.92293-25.25944,19.15614-39.55282-.76814-12.97317,12.80823-8.12119,18.40814c-.42983,1.78952-1.77649,2.66712-3.50116,3.03995l-29.20832,6.314-11.23015,31.85453-23.00192,17.0467-3.351,31.83239,36.49758,70.62875,19.99826,12.7885,8.66646-1.56618,13.14747-5.06245-7.86391,9.66926-4.60777,2.91521,9.32296,6.06988,30.05491-4.49927,2.821-3.50149-36.72875-27.88559-3.25165-8.29978-24.21428-52.67723-8.73647-17.07496,13.99577,7.34167,29.9285,61.69109c1.58694.85078,3.64993,2.08031,5.40199,1.85285,3.64537-.47326,7.411-.66313,10.80644-2.01224l15.91436-6.32326-10.61089,11.59504-9.89189,4.4164,22.99976,17.46333,24.34563-4.29714,9.64817-14.7581-25.18465-18.72545c-1.50604-1.64338-1.71818-3.86965-2.66627-5.8069l-11.07298-22.62565-22.98313-46.51871-9.16127-16.61337,15.56463,8.26935,37.78397,74.01587c1.82255-.48476,3.6748-1.1549,5.42337-1.99785l9.53978-4.59892,17.25617-9.90532-11.64017,14.46217-12.65614,8.63329,18.70839,13.85643,39.72435-17.17084c1.23954-.53579,2.93904-1.55573,2.92695-3.00389l-.07583-9.08576-22.07661-17.52334-7.70921-17.0574-11.35386-24.94359-11.67303-4.84359-12.75524-16.57735c-1.11184-1.445-1.71877-2.42809-1.6091-4.62574ZM195.1868,269.18104c.57537-1.62866,1.00411-2.25561,1.82074-3.20063,2.30299-4.62774-1.12583-14.80556-3.05574-19.53994-5.14694,1.17107-9.57429,2.56722-14.39493,4.37962-4.48786,9.09123-4.88809,13.75333-6.558,23.65344l22.18793-5.29249Z" fill="#001139"/>
  <path d="M202.63533,85.87819c-15.19896-5.60918-24.54464-3.0653-39.49071.51898,1.71253-7.16988,4.29015-13.43054,7.24124-19.87206,3.47049-1.96827,7.10749-4.64438,11.05082-5.42407,4.45967-.88178,9.5047-.18942,13.85288.91636,4.68624,1.19176,8.57183,3.85392,12.66472,6.32835,1.77753,6.97876,3.24452,13.62388,3.34162,20.87139l-8.66056-3.33895ZM204.86161,80.57569l-1.78763-8.23005c-7.41726-4.39061-11.70287-5.54986-20.36999-4.11979l-3.87849,3.35329c-1.88351,1.62846-3.10593,3.63871-4.41391,5.9296l4.04594-.51445c10.08801-1.2827,16.83072.43077,26.40409,3.58141Z" fill="#001139"/>
</svg>