<?xml version="1.0" encoding="UTF-8"?>
<svg id="Warstwa_1" xmlns="http://www.w3.org/2000/svg" version="1.1" viewBox="0 0 300 300">
  <!-- Generator: Adobe Illustrator 30.2.1, SVG Export Plug-In . SVG Version: 2.1.1 Build 1)  -->
  <path d="M205.60982,98.50707c-1.56139-29.35483-25.93434-52.7578-55.67145-52.7578-29.67032,0-53.99854,23.29813-55.65883,52.56L.31635,141.54899l-.31635,52.76617,98.44489,59.93557h102.97441l98.46007-59.29315.12063-52.98153-94.39018-43.46899ZM290.36853,184.80169l-97.18189-45.07999c6.2588-12.5975,10.17914-22.96811,11.73386-31.03594l85.53188,39.38984-.08384,36.7261ZM149.93837,55.28313c25.48504,0,46.21852,20.73349,46.21852,46.21852,0,7.32325-4.16054,23.11857-23.9812,56.77896-8.62144,14.64124-17.41655,27.8345-22.23732,34.85091-4.82057-7.01641-13.61588-20.20967-22.23732-34.85091-19.82066-33.66039-23.9812-49.45571-23.9812-56.77896,0-25.48504,20.73349-46.21852,46.21852-46.21852ZM82.19169,114.367c.45793,10.66516,5.76679,25.04026,8.8239,32.51541L9.59474,184.1976l.21905-36.52397,72.3779-33.30662ZM198.77028,244.71687h-97.65148l-61.13922-37.22294-11.07985-15.42055,47.32864-27.92682,21.57658-9.88857,28.98702,20.90479c4.28967,6.88189,8.21427,12.87567,11.12929,17.23687,2.61602,3.91361,4.62991,6.83261,5.85848,8.59187.72135,1.03305,1.29091,1.83618,1.68336,2.38144.84907,1.17918,2.01186,2.79393,4.47527,2.79393,2.46321,0,3.6262-1.61475,4.47507-2.79393.39266-.54527.96221-1.34839,1.68357-2.38144,1.22857-1.75926,3.24245-4.67826,5.85828-8.59187,4.35039-6.50839,10.9446-16.64216,17.65376-27.95837,3.39491-5.72601,6.45649-11.13882,9.193-16.24364l96.16756,44.60946-86.19932,51.90977Z" fill="#001139"/>
  <path d="M186.83028,101.50165c0-20.37486-16.51708-36.89191-36.89191-36.89191s-36.89191,16.51706-36.89191,36.89191,16.51708,36.89191,36.89191,36.89191,36.89191-16.51708,36.89191-36.89191ZM140.98043,115.44813l-1.54834,1.54834h-5.61916c-.60467-.60465-.94369-.94367-1.54834-1.54834v-9.58856h-.96843v4.26222l-1.54834,1.54834h-5.61919c-.60467-.60467-.94364-.94367-1.54831-1.54834v-17.24028c.60467-.60465.94364-.94367,1.54831-1.54834h5.61919c.60467.60467.94367.94369,1.54834,1.54834v4.26222h.96843v-9.58856c.60465-.60467.94367-.94367,1.54834-1.54834h5.61916c.60465.60467.94367.94367,1.54834,1.54834v9.58856h17.91587v-9.58856c.60467-.60467.94369-.94367,1.54834-1.54834h5.61916c.60467.60467.94369.94367,1.54834,1.54834v9.58856h.96843v-4.26222c.60467-.60465.94367-.94367,1.54834-1.54834h5.61916c.60467.60467.94367.94369,1.54834,1.54834v17.24028l-1.54834,1.54834h-5.61916l-1.54834-1.54834v-4.26222h-.96843v9.58856c-.60465.60467-.94367.94369-1.54834,1.54834h-5.61916l-1.54834-1.54834v-9.58856h-17.91587v9.58856Z" fill="#001139"/>
</svg>