<svg xmlns="http://www.w3.org/2000/svg" fill="none" viewBox="36.39 14.8 387.22 282.14">
<path d="M374.581 201.053H85.4184L36.3882 296.938H423.612L374.581 201.053ZM192.913 284.372L199.449 262.225H263.495L269.374 284.372H192.913Z" fill="#001138"/>
<path d="M80.7256 32.219L85.421 201.052H374.579L380.906 32.219H80.7256ZM362.489 190.746H96.5912L93.5275 43.1234H362.489V190.746Z" fill="#001138"/>
<path d="M288.855 177.045H165.425V14.7986H271.447C278.245 21.5936 282.056 25.424 288.855 32.219V177.045Z" fill="#00B9DD"/>
<path d="M232.772 44.2029H181.662V56.8142H232.772V44.2029Z" fill="white"/>
<path d="M260.449 82.1672H181.662V94.7785H260.449V82.1672Z" fill="white"/>
<path d="M241.726 108.598H181.662V121.21H241.726V108.598Z" fill="white"/>
<path d="M211.694 135.029H181.662V147.641H211.694V135.029Z" fill="white"/>
</svg>