<svg xmlns="http://www.w3.org/2000/svg" fill="none" viewBox="36.73 24.17 387.22 299.21">
<path d="M258.822 323.385L423.956 267.871L365.948 169.027L171.175 158.322L196.683 147.468L82.705 158.322L36.7324 236.971L258.822 323.385Z" fill="#001139"/>
<path d="M154.357 226.417L145.045 217.104L141.911 58.6685L154.363 46.2227H172.511V33.9438L192.265 24.1714L194.666 46.2227H266.006V29.4507L285.522 32.4001L287.718 46.2227H306.335L318.774 58.6685L315.64 217.113L306.329 226.417H154.357ZM296.664 205.081L297.402 204.34V112.303H163.289V204.34L164.028 205.081H296.664ZM297.402 94.2055V68.2997L296.664 67.5552H164.028L163.289 68.2965V91.0603L297.402 94.2055Z" fill="#00B9DD"/>
<path d="M178.894 152.975L182.06 129.441L205.146 126.828V152.975H178.894Z" fill="#00B9DD"/>
<path d="M243.202 152.975V127.274H217.483V152.975H243.202Z" fill="#00B9DD"/>
<path d="M255.539 152.975V126.828L278.612 129.441L281.791 152.975H255.539Z" fill="#00B9DD"/>
<path d="M181.039 186.397L179.081 164.58H205.147V191.073L181.039 186.397Z" fill="#00B9DD"/>
<path d="M243.202 190.28V164.58H217.483V190.28H243.202Z" fill="#00B9DD"/>
<path d="M255.539 164.58H281.945L277.925 188.095L255.539 190.749V164.58Z" fill="#00B9DD"/>
</svg>