<svg xmlns="http://www.w3.org/2000/svg" fill="none" viewBox="102.07 32.43 290.61 282.15">
<path d="M279.739 241.365C279.739 265.802 295.118 286.709 316.704 294.933V314.573H102.066V32.4272H270.66C286.127 47.8861 295.743 57.5066 309.578 71.3259C291.812 81.0593 279.739 99.9447 279.739 121.589C279.739 146.026 295.118 166.933 316.704 175.157V187.796C295.118 196.02 279.739 216.936 279.739 241.365Z" fill="#00B9DD"/>
<path d="M219.179 94.5282H130.302V83.563L219.179 85.9845V94.5282Z" fill="white"/>
<path d="M264.779 127.075H130.302V116.11L267.308 118.439L264.779 127.075Z" fill="white"/>
<path d="M267.308 159.622H130.302V148.657H262.941L267.308 159.622Z" fill="white"/>
<path d="M339.677 174.561C368.945 174.561 392.672 150.847 392.672 121.593C392.672 92.3391 368.945 68.6243 339.677 68.6243C310.409 68.6243 286.683 92.3391 286.683 121.593C286.683 150.847 310.409 174.561 339.677 174.561Z" fill="#001138"/>
<path d="M312.108 122.716L319.836 115.868L336.901 130.743L360.042 95.9751L365 107.516L336.901 147.21L312.108 122.716Z" fill="#00B9DD"/>
<path d="M177.782 194.983L130.302 197.652V186.687H177.782V194.983Z" fill="white"/>
<path d="M267.308 230.199H130.302V219.234H262.941L267.308 230.199Z" fill="white"/>
<path d="M240.886 262.746H130.302V251.781L243.56 254.301L240.886 262.746Z" fill="white"/>
<path d="M339.678 294.333C368.946 294.333 392.672 270.619 392.672 241.365C392.672 212.111 368.946 188.396 339.678 188.396C310.41 188.396 286.683 212.111 286.683 241.365C286.683 270.619 310.41 294.333 339.678 294.333Z" fill="#001138"/>
<path d="M317.021 233.394L323.948 238.335L339.588 218.652L349.888 231.786L335.769 244.384V254.301H345.961V247.6L362.154 232.054L344.928 209.27H334.247L317.021 233.394Z" fill="#00B9DD"/>
<path d="M344.135 262.081H333.734V273.46H344.135V262.081Z" fill="#00B9DD"/>
</svg>