<svg xmlns="http://www.w3.org/2000/svg" fill="none" viewBox="54.09 26.01 351.81 294.97">
<path d="M224.164 65.8113C223.021 64.5488 147.608 26.0139 147.608 26.0139L130.399 49.3814L213.528 82.3465L224.164 65.8113Z" fill="#00B9DD"/>
<path d="M198.986 114.489L190.102 134.391L54.0933 120.307L68.948 66.387L198.986 114.489Z" fill="#00B9DD"/>
<path d="M179.732 171.002L177.958 190.106L90.7501 198.931L90.1001 171.916L179.732 171.002Z" fill="#00B9DD"/>
<path d="M303.173 211.111L281.749 314.616L318.871 320.986L353.285 222.918L303.173 211.111Z" fill="#001138"/>
<path d="M384.101 223.855L281.617 200.312L307.277 121.334L405.907 172.506L384.101 223.855Z" fill="#001138"/>
<path d="M301.497 117.107L270.324 49.1587C229.341 86.3818 197.76 170.727 204.646 225.647L205.134 229.539L273.924 198.802L301.497 117.107Z" fill="#00B9DD"/>
</svg>