<svg xmlns="http://www.w3.org/2000/svg" fill="none" viewBox="36.73 11.23 387.22 313.09">
<path d="M423.955 268.638L258.824 324.318L36.7305 237.658L82.7044 158.775L147.148 152.624L154.707 151.902L177.004 149.77L178.107 149.666L179.695 149.509L189.312 148.596L196.68 147.891L171.172 158.775L281.685 164.865C279.871 169.85 278.708 175.157 278.309 180.664C278.196 182.117 278.144 183.579 278.144 185.058C278.144 187.389 278.283 189.686 278.543 191.948C281.963 221.354 306.967 244.261 337.215 244.261C360.475 244.261 380.646 230.715 390.262 211.071L423.955 268.638Z" fill="#001138"/>
<path d="M226.589 11.3012C176.683 13.2413 136.481 54.1835 135.292 104.226C134.875 121.791 139.232 138.33 147.148 152.624C152.017 161.437 158.249 169.389 165.548 176.218C173.507 183.657 181.466 191.087 189.164 198.804L230.347 240.076L270.055 200.274C272.858 197.464 275.688 194.689 278.543 191.948C278.283 189.686 278.144 187.389 278.144 185.058C278.144 183.579 278.196 182.117 278.309 180.664C278.708 175.157 279.871 169.85 281.685 164.865C287.431 149.022 299.746 136.32 315.308 130.074C317.817 129.056 320.412 128.221 323.076 127.568C324.612 120.799 325.42 113.761 325.42 106.54C325.42 52.7393 280.713 9.20452 226.589 11.3012Z" fill="#00B9DD"/>
<path d="M318.476 106.54C318.476 114.692 317.363 122.626 315.297 130.117C300.966 138.279 288.842 148.741 283.097 164.583C281.283 169.568 278.837 175.069 278.438 180.576C264.638 189.572 248.036 194.88 230.347 194.88C198.217 194.88 170.105 177.654 154.708 151.902C146.775 138.643 142.209 123.131 142.209 106.54C142.209 57.7416 181.665 18.1914 230.347 18.1914C279.02 18.1914 318.476 57.7416 318.476 106.54Z" fill="white"/>
<path d="M178.078 149.766H160.993L165.629 129.123H182.714L178.078 149.766Z" fill="#E00000"/>
<path d="M189.055 149.766H179.632L184.267 129.123H193.691L189.055 149.766Z" fill="#00B4DE"/>
<path d="M279.758 75.4502L278.256 82.1425H224.705L226.206 75.4502H279.758Z" fill="#E00000"/>
<path d="M299.695 75.4502L298.189 82.1425H279.833L281.335 75.4502H299.695Z" fill="#00B4DE"/>
<path d="M220.643 70.2438C220.426 70.2525 220.097 70.2263 219.802 69.948L219.793 69.9393C219.411 69.5478 215.375 63.7013 215.375 63.7013L216.608 58.9686L216.538 58.9077C216.538 58.9077 215.705 59.2818 215.028 59.6037C214.525 59.8473 213.891 60.0126 213.171 59.9516C212.363 59.8734 202.981 57.7593 202.981 57.7593L185.449 68.7647L186.126 66.2766L186.005 66.1983L179.66 67.9296L178.844 71.3225L178.966 71.4009L184.633 69.2781L183.019 75.1766L180.65 76.1946L179.018 82.1366H182.49L183.479 78.6131L185.033 78.0563L184 82.1366H187.463L188.843 76.7078L192.566 75.3855L201.063 76.9166L200.89 82.1366H203.936L205.125 77.7866L206.54 78.0041L205.411 82.128H208.874L210.22 77.2038L212.042 75.7509L214.42 76.0988L218.838 71.9316L217.892 75.4377L221.807 74.5677L222.935 70.1219C222.935 70.1219 221.025 70.2264 220.643 70.2438ZM215.905 68.643C215.887 68.6691 215.445 69.1388 214.863 69.2085C214.707 69.2172 214.542 69.2085 214.377 69.1563C213.822 68.9649 213.327 68.121 213.822 67.6077C213.926 67.4946 214.177 67.3988 214.36 67.5119L216.026 68.5212L215.905 68.643Z" fill="black"/>
<path d="M168.759 85.5298L173.62 94.63L165.895 124.793H288.003L297.533 85.5298H168.759ZM187.307 121.461H171.259C172.517 116.893 173.732 112.117 175.416 105.2C175.815 103.608 176.197 102.112 176.553 100.694L177.933 95.0737C178.089 94.4125 177.985 93.7165 177.621 93.1423C177.621 93.1423 175.989 90.7237 174.956 88.8532H193.512C204.483 88.8532 209.083 93.7252 205.828 106.593C203.138 117.511 198.199 121.461 187.307 121.461ZM234.235 117.119C233.888 118.459 233.593 119.808 233.281 121.461H204.57C205.047 119.895 205.394 118.503 205.741 117.25C206.132 115.51 206.653 113.509 206.826 112.595C209.43 110.943 225.053 98.0317 225.053 98.0317L225.009 97.7707C223.1 97.9447 221.92 97.9447 219.75 97.9447C215.028 97.9447 212.772 97.9882 210.515 98.0317C210.906 96.6397 211.47 94.5517 211.773 93.3772C212.077 92.0287 212.555 90.3757 212.858 88.8532H241.309C240.918 90.3409 240.571 91.6807 240.224 93.0292C239.877 94.4647 239.269 96.7702 239.052 97.9882C236.449 99.6412 221.459 112.247 221.459 112.247L221.416 112.378C223.412 112.291 224.957 112.291 226.736 112.291C230.946 112.291 233.333 112.204 235.581 112.117C235.103 113.683 234.539 115.858 234.235 117.119ZM237.299 121.461C238.558 116.763 239.773 112.073 241.465 105.157C243.192 98.2057 244.364 93.5077 245.406 88.8532H256.428C255.17 93.5077 253.998 98.1622 252.306 105.122C250.57 112.03 249.398 116.728 248.313 121.461H237.299ZM279.689 111.073C282.206 116.728 283.803 119.99 284.462 121.461H274.481C272.919 121.461 272.32 121.113 272.06 120.112C270.497 116.632 268.501 111.551 266.939 108.767H266.244C265.116 113.422 264.075 117.676 263.293 121.461H252.28C253.538 116.684 254.753 112.073 256.446 105.157C258.173 98.2057 259.31 93.5512 260.386 88.8532H271.409C270.193 93.1162 268.848 98.3362 267.503 103.721H267.633C272.294 98.7016 276.703 94.0384 280.496 88.8532H292.23C290.286 91.324 280.782 102.199 276.607 105.94C277.996 107.158 278.907 108.898 279.689 111.073Z" fill="black"/>
<path d="M195.464 105.51C193.858 111.856 191.732 113.029 187.397 113.029C185.966 113.029 185.353 113.029 184.137 112.944C184.572 110.987 185.178 108.55 186.003 105.249C186.695 102.421 187.434 99.5516 188.126 96.8985C189.472 96.8128 190.304 96.7681 191.561 96.7681C195.419 96.7681 197.2 98.4635 195.464 105.51Z" fill="black"/>
<path d="M295.155 121.704C295.346 120.982 294.964 120.695 294.244 120.695L294.235 120.704H292.473C292.36 121.147 292.265 121.591 292.1 122.252C291.961 122.818 291.848 123.209 291.744 123.592H292.621C292.664 123.366 292.725 123.07 292.803 122.722C293.055 122.722 293.289 122.713 293.532 122.713C293.966 122.713 293.975 122.87 293.975 123.444C293.983 123.557 294.001 123.592 294.096 123.592H294.912C294.886 123.479 294.877 123.261 294.869 123.035C294.843 122.635 294.652 122.522 294.218 122.47L294.226 122.452C294.765 122.383 295.034 122.191 295.155 121.704ZM293.593 122.078C293.306 122.078 293.072 122.069 292.959 122.069C293.011 121.852 293.063 121.626 293.124 121.391C293.315 121.382 293.61 121.373 293.74 121.373C294.244 121.373 294.409 121.443 294.331 121.739C294.278 121.965 294.07 122.078 293.593 122.078Z" fill="black"/>
<path d="M294.053 119.503V119.512C292.247 119.512 291.206 120.434 290.781 122.13C290.39 123.696 291.032 124.793 293.115 124.793C294.99 124.793 295.971 123.888 296.387 122.191C296.804 120.53 296.057 119.503 294.053 119.503ZM295.728 122.174C295.398 123.496 294.695 124.175 293.15 124.175C291.605 124.175 291.093 123.488 291.431 122.13C291.761 120.799 292.464 120.121 294.018 120.121C295.571 120.121 296.066 120.799 295.728 122.174Z" fill="black"/>
<path d="M225.593 136.136C225.515 136.345 225.463 136.583 225.385 136.818C224.259 136.765 222.712 136.74 221.218 136.74C219.724 136.74 218.285 136.765 217.236 136.818C217.315 136.635 217.367 136.449 217.393 136.292C217.787 134.769 216.553 134.034 213.226 134.034C209.899 134.034 208.222 135.32 207.304 138.998C206.308 142.988 207.33 144.721 211.445 144.721C214.144 144.721 215.53 143.961 216.318 142.068C214.352 142.068 212.151 142.094 210.475 142.146C210.605 141.751 210.869 140.7 210.947 140.283C211.129 139.523 211.315 138.863 211.419 138.338C214.039 138.39 216.712 138.39 218.649 138.39C220.404 138.39 222.656 138.39 224.965 138.338C223.575 146.111 221.4 149.763 210.661 149.763C201.204 149.763 197.115 146.007 199.081 138.181C200.732 131.616 205.787 129.12 214.039 129.12C223.393 129.12 226.537 132.298 225.593 136.132V136.136Z" fill="black"/>
<path d="M254.072 129.597C250.979 132.853 244.403 140.705 242.254 143.462C241.548 146.324 241.076 148.529 240.92 149.319C239.637 149.267 237.671 149.267 236.124 149.267C234.578 149.267 232.615 149.267 231.355 149.319C231.615 148.507 232.247 146.271 232.98 143.384C232.273 140.548 229.548 132.749 228.028 129.597H236.883C237.117 130.648 237.723 133.196 238.087 135.324C238.322 136.691 238.455 137.899 238.559 138.867H238.849C239.373 137.921 240.027 136.766 240.972 135.454C242.466 133.274 244.537 130.648 245.217 129.597H254.072Z" fill="black"/>
<path d="M285.985 129.597C285.304 132.171 284.516 135.111 283.442 139.419C282.394 143.596 281.713 146.457 281.137 149.293H273.357C274.168 146.51 274.799 144.199 275.609 141.125C275.926 139.866 276.342 138.42 276.788 137.027L276.632 137.001C275.792 138.447 274.877 139.862 274.089 140.939L267.907 149.29H263.926L261.7 140.466C261.435 139.389 261.279 137.969 261.149 136.606L260.993 136.632C260.707 138.025 260.469 139.363 260.127 140.783C259.368 144.013 258.793 146.48 258.213 149.293H251.165C252.005 146.457 252.737 143.596 253.785 139.419C254.859 135.111 255.566 132.171 256.116 129.597H266.361C266.677 131.486 267.171 134.351 267.881 137.582C268.037 138.502 268.197 139.657 268.354 140.813C269.06 139.631 269.796 138.502 270.398 137.582C272.573 134.455 274.669 131.463 275.899 129.597L285.985 129.597Z" fill="black"/>
<path d="M337.214 238.175C366.482 238.175 390.209 214.392 390.209 185.054C390.209 155.716 366.482 131.933 337.214 131.933C307.946 131.933 284.22 155.716 284.22 185.054C284.22 214.392 307.946 238.175 337.214 238.175Z" fill="#001138"/>
<path d="M309.645 186.181L317.373 179.313L334.438 194.231L357.579 159.363L362.537 170.937L334.438 210.746L309.645 186.181Z" fill="#00B9DD"/>
</svg>