<svg width="80" height="91" viewBox="0 0 80 91" fill="none" xmlns="http://www.w3.org/2000/svg">
<g clip-path="url(#clip0_6_3)">
<path d="M39.7949 0C61.7731 0 79.5898 17.8168 79.5898 39.7949C79.5898 54.5949 71.5106 67.5073 59.5219 74.3633C53.6226 77.7369 47.7881 81.6632 44.3906 87.5488C42.3483 91.0862 37.2425 91.0862 35.2002 87.5488C31.8014 81.6631 25.966 77.7368 20.0662 74.3625C8.07854 67.5062 0 54.5942 0 39.7949C4.12325e-05 17.8168 17.8168 4.12379e-05 39.7949 0Z" fill="white"/>
<circle cx="39.7949" cy="39.7949" r="32.7203" fill="#FEC417" stroke="#FEC417" stroke-width="3.53733"/>
<path d="M56.2635 40.2303C56.0882 40.24 55.8128 40.2202 55.579 39.9998C55.3027 39.7391 52.031 35.2272 52.031 35.2272L53.0169 31.6172L52.9623 31.5688C52.9623 31.5688 52.2951 31.8563 51.7506 32.1045C51.3488 32.2877 50.8398 32.4182 50.2583 32.3673C49.6148 32.3109 42.0786 30.6932 42.0786 30.6932L28.0018 39.0944L28.5482 37.1926L28.4522 37.1322L23.3583 38.4591L22.7009 41.0478L22.7967 41.1083L27.3514 39.4871L26.0568 43.9931L24.1509 44.7668L22.8469 49.3063H25.628L26.423 46.6132L27.6706 46.1926L26.8437 49.3063H29.6249L30.7314 45.1607L33.7224 44.1522L40.544 45.3225L40.401 49.3063H42.8506L43.8034 45.9897L44.9375 46.153L44.0317 49.3063H46.8125L47.893 45.5459L49.3569 44.4339L51.2703 44.7005L54.818 41.5199L54.053 44.1968L57.198 43.5343L58.1011 40.1378C58.1011 40.1378 56.5693 40.2138 56.2635 40.2303ZM52.4554 39.0045C52.4367 39.0237 52.0815 39.3823 51.6159 39.4302C51.4854 39.444 51.3533 39.4307 51.2287 39.3913C50.7826 39.2498 50.3829 38.5993 50.7843 38.2096C50.8688 38.1275 51.0708 38.0537 51.2128 38.1354L52.5514 38.906L52.4554 39.0045Z" fill="#090A0B"/>
</g>
<defs>
<clipPath id="clip0_6_3">
<rect width="79.59" height="90.2017" fill="white"/>
</clipPath>
</defs>
</svg>
