<svg xmlns="http://www.w3.org/2000/svg" id="uuid-fd1111bf-0917-4e0a-aa7b-f8eef752933d" viewBox="0 0 175.23 42.73"><defs><style>.uuid-0d42782c-bedf-4f4f-8aac-6dae3b07c35b{fill:#fff;stroke-width:0px;}</style></defs><g id="uuid-eee4626a-f3ab-4fe7-8856-d55d05a413a0"><path class="uuid-0d42782c-bedf-4f4f-8aac-6dae3b07c35b" d="m37.92,21.37c-.66.88-1.42,1.55-2.28,1.99-.85.44-1.8.66-2.82.66-1.49,0-2.6-.41-3.32-1.23-.72-.82-1.02-1.98-.89-3.46.12-1.39.5-2.65,1.14-3.75.63-1.09,1.44-1.94,2.42-2.55.97-.6,2.05-.91,3.22-.91,2.11,0,3.46.84,4.12,2.57l.12.32,4.46-2.34-.1-.25c-.63-1.6-1.64-2.83-2.98-3.65-1.34-.81-2.99-1.22-4.93-1.22-2.21,0-4.25.52-6.06,1.55-1.81,1.03-3.3,2.47-4.43,4.27-1.13,1.8-1.8,3.86-2,6.12-.16,1.79.09,3.39.74,4.76.65,1.37,1.68,2.46,3.05,3.22,1.36.76,3,1.14,4.89,1.14s3.58-.41,5.2-1.21c1.62-.8,2.95-1.94,3.96-3.37l.17-.24-3.49-2.69-.18.25Z"/><path class="uuid-0d42782c-bedf-4f4f-8aac-6dae3b07c35b" d="m49.21,21.43l2.5-9.16h4.99l1.19-4.35h-4.99l1.27-4.56-5.45,1.83-4.48,16.12c-.14.51-.24,1.07-.29,1.66-.15,1.73.26,3.12,1.21,4.13.95,1.01,2.27,1.52,3.94,1.52,1.87,0,3.47-.42,4.77-1.24l.16-.1-.56-4.12-.41.28c-.71.49-1.5.73-2.34.73-.62,0-1.06-.15-1.33-.44-.28-.31-.39-.8-.34-1.47,0-.11.04-.35.14-.82Z"/><polygon class="uuid-0d42782c-bedf-4f4f-8aac-6dae3b07c35b" points="62.21 9.61 57.05 28.36 62.05 28.36 67.66 7.78 62.21 9.61"/><polygon class="uuid-0d42782c-bedf-4f4f-8aac-6dae3b07c35b" points="89.78 2.28 76.57 22.09 74.82 7.78 69.91 7.78 72.54 28.36 77.48 28.36 96.18 .2 89.78 2.28"/><path class="uuid-0d42782c-bedf-4f4f-8aac-6dae3b07c35b" d="m107.49,10.04c-1.52-1.6-3.69-2.41-6.43-2.41-2.17,0-4.17.52-5.97,1.55-1.79,1.03-3.27,2.47-4.38,4.28-1.11,1.81-1.77,3.85-1.97,6.07-.16,1.81.09,3.42.76,4.78.67,1.37,1.73,2.44,3.14,3.19,1.4.74,3.1,1.12,5.05,1.12,1.53,0,3.02-.24,4.45-.71,1.43-.47,2.7-1.04,3.79-1.98l.41-.34-1.88-3.67-.33.24c-.67.64-1.67,1.06-2.62,1.39-.96.33-1.98.5-3.03.5-2.79,0-4.33-.98-4.69-2.99l15.43-2.89.04-.2c.05-.24.09-.59.13-1.04.27-2.98-.37-5.3-1.89-6.9Zm-13.55,7.31c.44-1.58,1.36-2.87,2.42-3.82,1.15-1.03,2.56-1.56,4.19-1.56,1.27,0,2.41.32,3.15.95.69.58,1.28,1.5,1.28,2.54l-11.04,1.9Z"/><path class="uuid-0d42782c-bedf-4f4f-8aac-6dae3b07c35b" d="m173.28,10.04c-1.52-1.6-3.69-2.41-6.43-2.41-2.17,0-4.17.52-5.97,1.55-1.79,1.03-3.27,2.47-4.38,4.28-1.11,1.81-1.77,3.85-1.97,6.07-.16,1.81.09,3.42.76,4.78.67,1.37,1.73,2.44,3.14,3.19,1.4.74,3.1,1.12,5.05,1.12,1.53,0,3.02-.24,4.45-.71,1.43-.47,2.7-1.04,3.79-1.98l.41-.34-1.88-3.67-.33.24c-.67.64-1.67,1.06-2.62,1.39-.96.33-1.98.5-3.03.5-2.79,0-4.33-.98-4.69-2.99l15.43-2.89.04-.2c.05-.24.09-.59.13-1.04.27-2.98-.37-5.3-1.89-6.9Zm-13.55,7.31c.44-1.58,1.36-2.87,2.42-3.82,1.15-1.03,2.56-1.56,4.19-1.56,1.27,0,2.41.32,3.15.95.69.58,1.28,1.5,1.28,2.54l-11.04,1.9Z"/><path class="uuid-0d42782c-bedf-4f4f-8aac-6dae3b07c35b" d="m117.47,24.16c-.61,0-1.04-.14-1.3-.42-.26-.28-.36-.73-.31-1.34.03-.35.07-.62.14-.81L121.93,0l-5.47,1.85-5.42,19.63c-.18.68-.29,1.27-.33,1.73-.15,1.68.22,3.01,1.1,3.97.87.96,2.16,1.45,3.83,1.45,1.01,0,1.96-.17,2.84-.51l.15-.06.93-4.43-.54.23c-.49.21-1.01.31-1.55.31Z"/><polygon class="uuid-0d42782c-bedf-4f4f-8aac-6dae3b07c35b" points="126.43 9.63 121.3 28.36 126.29 28.36 131.91 7.78 126.43 9.63"/><path class="uuid-0d42782c-bedf-4f4f-8aac-6dae3b07c35b" d="m151.56,9.41c-1.2-1.23-2.94-1.85-5.17-1.85-2.38,0-4.48.64-6.24,1.9l.48-1.68-5.4,1.85-5.26,18.74h5.12l3-10.58c.53-1.85,1.37-3.25,2.47-4.17,1.1-.91,2.45-1.37,4.01-1.37,1.2,0,2.07.28,2.58.83.5.54.71,1.37.61,2.47-.04.5-.14,1-.27,1.48l-3.16,11.34h5.12l3.17-11.3c.26-1.01.42-1.83.47-2.44.2-2.23-.31-3.98-1.52-5.21Z"/><path class="uuid-0d42782c-bedf-4f4f-8aac-6dae3b07c35b" d="m20.67,19.72l3.35-11.94-5.58,1.86-.2.62c-1.22-1.79-3.27-2.7-6.1-2.7-2.07,0-4.01.52-5.77,1.54-1.76,1.02-3.21,2.46-4.33,4.28-1.12,1.81-1.79,3.88-1.99,6.13-.16,1.84.08,3.47.71,4.85.64,1.39,1.67,2.32,2.93,3.05,1.25.72,2.65.98,4.27.98,1.49,0,2.76-.2,4.02-.76.62-.28,1.24-.57,1.83-.92l-.43,1.51h4.87l1.88-6.6h0s.32-1.14.32-1.14l.21-.75h0Zm-11.39,4.16c-1.53,0-2.69-.41-3.45-1.22-.76-.81-1.07-1.97-.94-3.45.13-1.39.53-2.65,1.19-3.74.66-1.08,1.51-1.94,2.53-2.54,1.01-.6,2.15-.91,3.38-.91,1.53,0,2.69.41,3.45,1.22.76.82,1.07,1.98.94,3.45-.13,1.39-.53,2.65-1.19,3.74-.66,1.08-1.51,1.94-2.53,2.55-1.02.6-2.15.91-3.38.91Z"/><path class="uuid-0d42782c-bedf-4f4f-8aac-6dae3b07c35b" d="m169.98,3.99h-.75v-.69h2.35v.69h-.75v1.95h-.86v-1.95Z"/><path class="uuid-0d42782c-bedf-4f4f-8aac-6dae3b07c35b" d="m174.08,5.95v-1.21s-.56.53-.56.53h-.38l-.55-.49v1.16h-.78v-2.64h.71l.83.97.81-.97h.71v2.64s-.78,0-.78,0Z"/><path class="uuid-0d42782c-bedf-4f4f-8aac-6dae3b07c35b" d="m19.57,33.4c.5.48.75,1.08.75,1.79s-.25,1.31-.75,1.79c-.5.48-1.14.72-1.92.72h-1.18v2.66h-1.27v-7.68h2.44c.78,0,1.42.24,1.92.72Zm-.88,2.74c.26-.25.38-.56.38-.95s-.13-.7-.38-.95-.6-.37-1.04-.37h-1.17v2.64h1.17c.44,0,.79-.12,1.04-.37Z"/><path class="uuid-0d42782c-bedf-4f4f-8aac-6dae3b07c35b" d="m21.38,40.36v-8.11h1.19v8.11h-1.19Z"/><path class="uuid-0d42782c-bedf-4f4f-8aac-6dae3b07c35b" d="m26.39,40.47c-.74,0-1.35-.27-1.86-.82-.5-.55-.75-1.21-.75-1.99s.25-1.44.75-1.99c.5-.55,1.12-.82,1.86-.82.37,0,.71.08,1.02.24.31.16.55.36.71.59v-.73h1.19v5.41h-1.19v-.72c-.17.23-.4.43-.71.59-.31.16-.65.24-1.02.24Zm-.94-1.58c.3.33.69.5,1.16.5s.85-.17,1.16-.5c.3-.33.45-.74.45-1.23s-.15-.9-.45-1.23c-.3-.33-.69-.5-1.16-.5s-.85.17-1.16.5c-.3.33-.45.74-.45,1.23s.15.9.45,1.23Z"/><path class="uuid-0d42782c-bedf-4f4f-8aac-6dae3b07c35b" d="m32.66,42.63h-1.31l1.16-2.55-2.33-5.12h1.31l1.66,3.83,1.67-3.83h1.32l-3.47,7.67Z"/><path class="uuid-0d42782c-bedf-4f4f-8aac-6dae3b07c35b" d="m39.29,42.73c-.74,0-1.34-.18-1.81-.54-.47-.36-.75-.83-.82-1.41h1.17c.21.62.71.93,1.49.93.42,0,.78-.14,1.05-.42.28-.28.42-.67.42-1.17v-.64c-.17.25-.42.45-.72.61-.31.16-.65.24-1.01.24-.73,0-1.34-.27-1.84-.8s-.75-1.18-.75-1.95.25-1.41.75-1.94,1.12-.79,1.84-.79c.36,0,.7.08,1.01.23.31.16.55.36.72.6v-.73h1.19v5.07c0,.89-.25,1.57-.76,2.02-.51.45-1.15.68-1.93.68Zm-1.16-3.96c.31.31.69.47,1.15.47s.84-.16,1.15-.47c.31-.31.46-.71.46-1.18s-.16-.87-.46-1.18c-.31-.31-.69-.47-1.15-.47s-.84.16-1.15.47c-.31.31-.46.71-.46,1.18s.15.87.46,1.18Z"/><path class="uuid-0d42782c-bedf-4f4f-8aac-6dae3b07c35b" d="m43.58,40.36v-5.41h1.19v.96c.1-.3.29-.55.56-.74.27-.19.56-.28.87-.28.19,0,.34.01.46.04v1.22c-.17-.06-.37-.1-.59-.1-.36,0-.67.15-.92.44-.25.29-.38.7-.38,1.22v2.64h-1.19Z"/><path class="uuid-0d42782c-bedf-4f4f-8aac-6dae3b07c35b" d="m51.96,39.66c-.54.54-1.22.82-2.02.82s-1.47-.27-2.02-.82c-.54-.54-.82-1.21-.82-2s.27-1.45.82-2c.54-.54,1.22-.82,2.02-.82s1.47.27,2.02.82c.54.54.82,1.21.82,2s-.27,1.45-.82,2Zm-2.02-.29c.47,0,.86-.16,1.16-.49s.46-.73.46-1.22-.15-.89-.46-1.22-.69-.49-1.16-.49-.87.16-1.17.49-.46.73-.46,1.22.15.89.46,1.22.7.49,1.17.49Z"/><path class="uuid-0d42782c-bedf-4f4f-8aac-6dae3b07c35b" d="m55.92,40.47c-.62,0-1.11-.21-1.47-.62-.36-.42-.54-.97-.54-1.66v-3.23h1.19v3.04c0,.43.09.77.28,1.02.19.25.45.37.8.37.4,0,.72-.15.96-.46.24-.31.36-.74.36-1.31v-2.66h1.19v5.41h-1.19v-.74c-.32.56-.84.84-1.58.84Z"/><path class="uuid-0d42782c-bedf-4f4f-8aac-6dae3b07c35b" d="m60.29,40.36v-5.41h1.19v.74c.34-.56.89-.84,1.64-.84.63,0,1.13.21,1.5.62.38.41.56.96.56,1.64v3.26h-1.19v-3.06c0-.43-.1-.77-.3-1.01-.2-.24-.48-.36-.82-.36-.41,0-.75.16-1.01.47s-.39.75-.39,1.31v2.66h-1.19Z"/><path class="uuid-0d42782c-bedf-4f4f-8aac-6dae3b07c35b" d="m68.93,40.47c-.74,0-1.35-.27-1.86-.82-.5-.55-.75-1.21-.75-1.99s.25-1.44.75-1.99c.5-.55,1.12-.82,1.86-.82.37,0,.71.08,1.02.24.31.16.55.36.71.59v-3.43h1.19v8.11h-1.19v-.72c-.17.23-.4.43-.71.59-.31.16-.65.24-1.02.24Zm-.94-1.58c.3.33.69.5,1.16.5s.85-.17,1.16-.5c.3-.33.45-.74.45-1.23s-.15-.9-.45-1.23c-.3-.33-.69-.5-1.16-.5s-.85.17-1.16.5c-.3.33-.45.74-.45,1.23s.15.9.45,1.23Z"/><path class="uuid-0d42782c-bedf-4f4f-8aac-6dae3b07c35b" d="m75.37,40.47c-.64,0-1.18-.16-1.62-.48s-.67-.74-.7-1.28h1.23c.09.53.46.8,1.11.8.27,0,.48-.05.64-.15.16-.1.24-.24.24-.43s-.06-.34-.18-.44c-.12-.11-.33-.2-.62-.27l-.89-.24c-.92-.25-1.38-.79-1.38-1.63,0-.45.18-.82.55-1.1.37-.28.85-.42,1.46-.42s1.06.15,1.44.44c.38.3.58.69.63,1.18h-1.19c-.12-.45-.41-.67-.89-.67-.24,0-.43.05-.57.15-.14.1-.22.23-.22.41,0,.31.24.53.72.65l.91.24c.96.25,1.44.79,1.44,1.63,0,.51-.2.91-.59,1.18-.39.28-.9.42-1.53.42Z"/><path class="uuid-0d42782c-bedf-4f4f-8aac-6dae3b07c35b" d="m83.58,40.47c-.74,0-1.34-.21-1.78-.64-.44-.43-.67-.96-.67-1.6,0-.49.14-.9.41-1.23.27-.33.64-.64,1.12-.93-.58-.58-.88-1.15-.88-1.69,0-.51.2-.94.59-1.3.39-.35.88-.53,1.47-.53s1.07.18,1.45.54c.38.36.56.79.56,1.3,0,.43-.13.8-.38,1.09-.25.29-.59.55-1.03.78l1.46,1.43.82-1.03h1.41l-1.45,1.77,1.99,1.93h-1.57l-1.12-1.09c-.4.42-.78.72-1.15.91-.37.19-.79.29-1.25.29Zm.01-1.06c.54,0,1.08-.29,1.62-.88l-1.77-1.72c-.75.4-1.12.88-1.12,1.44,0,.37.13.65.38.85.25.2.55.3.9.3Zm-.66-5.02c0,.06,0,.13.02.18s.03.12.06.18c.03.06.06.11.08.15.02.04.06.09.12.16.06.06.11.11.14.15.03.03.09.09.17.17l.18.18.03-.02c.32-.17.55-.33.7-.48.15-.16.23-.36.23-.6,0-.26-.08-.47-.24-.64-.16-.17-.36-.25-.62-.25s-.45.08-.63.23c-.17.15-.26.35-.26.59Z"/><path class="uuid-0d42782c-bedf-4f4f-8aac-6dae3b07c35b" d="m98.28,39.34c-.77.77-1.71,1.16-2.81,1.16s-2.04-.38-2.81-1.15c-.77-.77-1.16-1.71-1.16-2.82s.39-2.05,1.16-2.82c.77-.77,1.71-1.15,2.81-1.15s2.04.39,2.81,1.16c.77.77,1.16,1.71,1.16,2.81s-.39,2.04-1.16,2.81Zm-2.81-.06c.75,0,1.38-.27,1.9-.8.52-.53.78-1.18.78-1.95s-.26-1.41-.78-1.95c-.52-.53-1.15-.8-1.9-.8s-1.4.27-1.92.8-.78,1.18-.78,1.95.26,1.41.78,1.95,1.16.8,1.92.8Z"/><path class="uuid-0d42782c-bedf-4f4f-8aac-6dae3b07c35b" d="m102.59,40.47c-.62,0-1.11-.21-1.47-.62-.36-.42-.54-.97-.54-1.66v-3.23h1.19v3.04c0,.43.09.77.28,1.02.19.25.45.37.8.37.4,0,.72-.15.96-.46.24-.31.36-.74.36-1.31v-2.66h1.19v5.41h-1.19v-.74c-.32.56-.84.84-1.58.84Z"/><path class="uuid-0d42782c-bedf-4f4f-8aac-6dae3b07c35b" d="m109.31,40.42c-.55,0-.99-.15-1.34-.46-.34-.31-.51-.75-.51-1.34v-2.61h-1.12v-1.06h1.12v-1.5h1.19v1.5h1.55v1.06h-1.55v2.41c0,.33.07.57.22.71.14.14.38.21.69.21.26,0,.47-.04.64-.11v1.06c-.26.08-.56.12-.89.12Z"/><path class="uuid-0d42782c-bedf-4f4f-8aac-6dae3b07c35b" d="m113.47,40.47c-.74,0-1.35-.27-1.86-.82-.5-.55-.75-1.21-.75-1.99s.25-1.44.75-1.99c.5-.55,1.12-.82,1.86-.82.37,0,.71.08,1.02.24.31.16.55.36.71.59v-3.43h1.19v8.11h-1.19v-.72c-.17.23-.4.43-.71.59-.31.16-.65.24-1.02.24Zm-.94-1.58c.3.33.69.5,1.16.5s.85-.17,1.16-.5c.3-.33.45-.74.45-1.23s-.15-.9-.45-1.23c-.3-.33-.69-.5-1.16-.5s-.85.17-1.16.5c-.3.33-.45.74-.45,1.23s.15.9.45,1.23Z"/><path class="uuid-0d42782c-bedf-4f4f-8aac-6dae3b07c35b" d="m122.46,39.66c-.54.54-1.22.82-2.02.82s-1.47-.27-2.02-.82c-.54-.54-.82-1.21-.82-2s.27-1.45.82-2c.54-.54,1.22-.82,2.02-.82s1.47.27,2.02.82c.54.54.82,1.21.82,2s-.27,1.45-.82,2Zm-2.02-.29c.47,0,.86-.16,1.16-.49s.46-.73.46-1.22-.15-.89-.46-1.22-.69-.49-1.16-.49-.87.16-1.17.49-.46.73-.46,1.22.15.89.46,1.22.7.49,1.17.49Z"/><path class="uuid-0d42782c-bedf-4f4f-8aac-6dae3b07c35b" d="m128.94,39.66c-.54.54-1.22.82-2.02.82s-1.47-.27-2.02-.82c-.54-.54-.82-1.21-.82-2s.27-1.45.82-2c.54-.54,1.22-.82,2.02-.82s1.47.27,2.02.82c.54.54.82,1.21.82,2s-.27,1.45-.82,2Zm-2.02-.29c.47,0,.86-.16,1.16-.49s.46-.73.46-1.22-.15-.89-.46-1.22-.69-.49-1.16-.49-.87.16-1.17.49-.46.73-.46,1.22.15.89.46,1.22.7.49,1.17.49Z"/><path class="uuid-0d42782c-bedf-4f4f-8aac-6dae3b07c35b" d="m130.96,40.36v-5.41h1.19v.96c.1-.3.29-.55.56-.74.27-.19.56-.28.87-.28.19,0,.34.01.46.04v1.22c-.17-.06-.37-.1-.59-.1-.36,0-.67.15-.92.44-.25.29-.38.7-.38,1.22v2.64h-1.19Z"/><path class="uuid-0d42782c-bedf-4f4f-8aac-6dae3b07c35b" d="m141.02,40.49c-1.15,0-2.1-.38-2.87-1.14-.76-.76-1.15-1.7-1.15-2.83s.38-2.07,1.14-2.83c.76-.76,1.71-1.14,2.86-1.14.84,0,1.6.23,2.26.68.66.45,1.12,1.03,1.37,1.72h-1.44c-.2-.35-.5-.64-.89-.85-.39-.22-.83-.32-1.3-.32-.79,0-1.45.26-1.96.79s-.77,1.18-.77,1.96.26,1.43.77,1.96,1.17.79,1.97.79c.7,0,1.27-.2,1.72-.61.45-.4.71-.94.8-1.6h-2.63v-1.19h3.93c.14,1.43-.17,2.56-.91,3.38-.75.83-1.71,1.24-2.91,1.24Z"/><path class="uuid-0d42782c-bedf-4f4f-8aac-6dae3b07c35b" d="m147.86,42.63h-1.31l1.16-2.55-2.33-5.12h1.31l1.66,3.83,1.67-3.83h1.32l-3.47,7.67Z"/><path class="uuid-0d42782c-bedf-4f4f-8aac-6dae3b07c35b" d="m159.05,40.36v-3.04c0-.44-.08-.78-.24-1.03-.16-.24-.4-.37-.72-.37-.38,0-.69.15-.92.44-.23.3-.35.71-.37,1.24v2.75h-1.19v-3.04c0-.44-.08-.78-.24-1.03-.16-.24-.4-.37-.72-.37-.4,0-.71.16-.95.47s-.35.75-.35,1.31v2.66h-1.19v-5.41h1.19v.74c.33-.56.84-.84,1.54-.84.82,0,1.37.36,1.68,1.07.15-.34.38-.6.7-.79s.66-.28,1.03-.28c.61,0,1.08.21,1.43.62.35.41.52.97.52,1.67v3.23h-1.19Z"/></g></svg>