<svg width="146" height="24" viewBox="0 0 146 24" fill="none" xmlns="http://www.w3.org/2000/svg">
<path d="M91.1956 17.1996L91.2291 17.1041C91.2291 17.1041 102.756 7.88454 104.758 6.67641C104.924 5.7863 105.391 4.10123 105.658 3.05221C105.925 2.06665 106.192 1.081 106.492 0L84.6131 9.72844e-05C84.3798 1.11298 84.0129 2.32091 83.7794 3.30647C83.5459 4.16489 83.1125 5.69075 82.8123 6.70819C84.5466 6.67641 86.2808 6.64453 89.9161 6.64453C91.5838 6.64453 92.4902 6.64453 93.9577 6.5174L93.9912 6.70819C93.9912 6.70819 81.9785 16.1505 79.9773 17.3586C79.8439 18.0261 79.4437 19.4887 79.1436 20.7603C78.8768 21.6822 78.61 22.6997 78.2431 23.8441H100.322C100.555 22.636 100.789 21.6505 101.056 20.6649C101.289 19.7429 101.723 18.1534 102.089 17.0089C100.355 17.0724 98.5207 17.136 95.2857 17.136C93.9184 17.136 92.7298 17.136 91.1956 17.1996Z" fill="white"/>
<path d="M118.116 0H109.645C108.844 3.40182 107.944 6.83532 106.61 11.9222C105.309 16.9771 104.375 20.4106 103.408 23.8441H111.879C112.713 20.3787 113.613 16.9453 114.948 11.8903C116.248 6.80363 117.149 3.40162 118.116 0Z" fill="white"/>
<path d="M133.638 12.4944C136.846 9.75595 144.157 1.80708 145.653 0H136.627C133.711 3.78891 130.323 7.19527 126.734 10.873H126.634C127.668 6.93077 128.702 3.11577 129.636 0.000191789H121.164C120.331 3.4336 119.463 6.83532 118.129 11.9221C116.829 16.977 115.895 20.3471 114.928 23.8441H123.399C123.999 21.0783 124.8 17.9627 125.667 14.5608H126.201C127.401 16.5955 128.935 20.3153 130.136 22.8585C130.336 23.5899 130.803 23.8441 132.004 23.8441H139.674C139.174 22.7632 137.94 20.3787 136.006 16.2458C135.405 14.6561 134.705 13.3844 133.638 12.4944Z" fill="white"/>
<path d="M69.737 0.000210204H55.471C56.2651 1.36378 57.5183 3.13105 57.5183 3.13105C57.6548 3.33986 57.7461 3.57261 57.7867 3.81558C57.8273 4.05856 57.8164 4.30682 57.7548 4.54572L56.6932 8.65517C56.4206 9.69298 56.1314 10.7883 55.8237 11.954C54.5231 17.009 53.5893 20.5062 52.6222 23.8443H64.9677C73.3389 23.8443 77.1408 20.9512 79.2086 12.9714C81.71 3.56113 78.1748 0.000210204 69.737 0.000210204ZM71.2377 12.1767C70.0037 16.8183 68.3694 17.6766 65.0344 17.6766C63.9337 17.6766 63.4613 17.6766 62.5275 17.6131C62.8611 16.1824 63.328 14.402 63.9615 11.9859C64.4951 9.91952 65.062 7.82109 65.5958 5.88166C66.6297 5.81829 67.2689 5.78641 68.2362 5.78641C71.2043 5.78641 72.5716 7.02623 71.2377 12.1767Z" fill="white"/>
<path d="M145.915 22.0181C145.595 23.255 144.841 23.9191 143.395 23.9191C141.797 23.9191 141.301 23.1141 141.602 21.9725C141.931 20.7309 142.732 20.0533 144.121 20.0533C145.662 20.0533 146.234 20.7991 145.915 22.0181ZM144.092 20.5036C142.899 20.5036 142.36 20.9991 142.103 21.9726C141.845 22.964 142.226 23.4688 143.424 23.4688C144.612 23.4688 145.156 22.9731 145.409 21.9998C145.671 20.9992 145.294 20.5036 144.092 20.5036ZM144.264 20.9265C144.822 20.9265 145.113 21.1402 144.97 21.6679C144.875 22.0181 144.665 22.1591 144.249 22.2091L144.245 22.2226C144.579 22.2591 144.727 22.341 144.746 22.6366C144.755 22.8049 144.76 22.9594 144.784 23.0413H144.159C144.082 23.0413 144.068 23.0185 144.064 22.9367C144.064 22.5183 144.059 22.3999 143.725 22.3999C143.534 22.3999 143.353 22.4047 143.162 22.4047C143.104 22.6593 143.052 22.8776 143.019 23.0413H142.351C142.427 22.7595 142.513 22.4775 142.618 22.0592C142.747 21.5768 142.823 21.2541 142.909 20.9265H144.264ZM143.882 21.4177C143.782 21.4177 143.553 21.4223 143.41 21.4312C143.362 21.5996 143.319 21.7679 143.281 21.9271C143.367 21.9271 143.548 21.9316 143.768 21.9316C144.135 21.9316 144.292 21.8498 144.335 21.6861C144.393 21.4678 144.269 21.4177 143.882 21.4177Z" fill="white"/>
<path d="M42.9949 12.2175C42.7703 12.2299 42.4176 12.2045 42.118 11.9222C41.7641 11.5882 37.5729 5.80833 37.5729 5.80833L38.8358 1.18379L38.7659 1.12177C38.7659 1.12177 37.9113 1.49003 37.2137 1.80805C36.699 2.0427 36.0469 2.20992 35.302 2.14471C34.4777 2.07245 24.8235 0.000102843 24.8235 0.000102843L6.79065 10.7624L7.49052 8.32612L7.36759 8.24864L0.842155 9.94849L0 13.2647L0.122726 13.3422L5.95741 11.2654L4.29905 17.0377L1.8575 18.0288L0.186977 23.8441H3.74967L4.76816 20.3942L6.36633 19.8553L5.3071 23.8441H8.86989L10.2874 18.5335L14.1189 17.2416L22.8577 18.7408L22.6744 23.8441H25.8125L27.0331 19.5955L28.4858 19.8046L27.3255 23.8441H30.8878L32.272 19.027L34.1473 17.6024L36.5985 17.9439L41.1432 13.8695L40.1632 17.2987L44.192 16.45L45.349 12.099C45.349 12.099 43.3866 12.1963 42.9949 12.2175ZM38.1166 10.6472C38.0927 10.6718 37.6375 11.1311 37.0411 11.1925C36.874 11.2102 36.7048 11.1931 36.5452 11.1426C35.9736 10.9614 35.4616 10.1281 35.9758 9.62883C36.0841 9.52372 36.3428 9.42914 36.5248 9.53386L38.2395 10.521L38.1166 10.6472Z" fill="white"/>
</svg>
