<svg width="265" height="176" viewBox="0 0 265 176" fill="none" xmlns="http://www.w3.org/2000/svg">
<g clip-path="url(#clip0_100_81)">
<path d="M32.642 175.362H0L8.85653 136.016H41.4986L32.642 175.362Z" fill="#E00000"/>
<path d="M53.6151 175.362H35.6108L44.4674 136.016H62.4716L53.6151 175.362Z" fill="#00B4E1"/>
<path d="M226.911 33.7145L224.041 46.4702H121.726L124.595 33.7145H226.911Z" fill="#E00000"/>
<path d="M265 33.7145L262.124 46.4702H227.053L229.922 33.7145H265Z" fill="#00B4E1"/>
<path d="M112.351 23.2316C111.69 22.5781 103.906 11.3139 103.906 11.3139L106.25 2.30115L106.122 2.18042C106.122 2.18042 104.531 2.89775 103.239 3.51564C102.28 3.97019 101.072 4.29689 99.6874 4.16905C98.1533 4.02701 80.22 -0.00708389 80.22 -0.00708389L46.7186 20.9659L48.0183 16.2216L47.7911 16.0725L35.6675 19.3821L34.105 25.8452L34.3323 25.9943L45.1703 21.946L42.0879 33.196L37.5496 35.1279L34.4459 46.4631H41.0652L42.9544 39.7372L45.9232 38.6861L43.9558 46.456H50.5752L53.2101 36.108L60.3266 33.5938L76.5624 36.5128L76.2215 46.456H82.0524L84.3181 38.1747L87.0169 38.5796L84.8578 46.4489H91.4771L94.0482 37.0597L97.5283 34.2827L102.081 34.9503L110.525 27.01L108.707 33.6932L116.193 32.0384L118.345 23.5583C118.345 23.5583 114.702 23.75 113.97 23.7855C113.551 23.8068 112.898 23.7571 112.344 23.2102L112.351 23.2316ZM104.915 20.7458C104.872 20.7955 104.027 21.6904 102.919 21.8111C102.628 21.8395 102.315 21.8182 101.996 21.7117C100.93 21.3566 99.9857 19.7372 100.937 18.7642C101.136 18.5583 101.619 18.3736 101.96 18.5796L105.142 20.5043L104.915 20.7529V20.7458Z" fill="white"/>
<path d="M14.8367 52.9262L24.1265 70.2628L9.36084 127.763H242.663L260.867 52.9262H14.8367ZM50.277 121.413H19.6094C22.01 112.713 24.3324 103.601 27.564 90.4262C28.3239 87.3864 29.0483 84.5313 29.7231 81.8253L32.358 71.1151C32.6705 69.858 32.4574 68.5299 31.7685 67.429C31.7685 67.429 28.6577 62.8196 26.6833 59.2685H62.1307C83.0966 59.2685 91.875 68.5512 85.6606 93.0753C80.5256 113.878 71.0796 121.413 50.277 121.413ZM139.943 113.132C139.276 115.696 138.7 118.267 138.118 121.413H83.26C84.1762 118.43 84.8367 115.781 85.4972 113.381C86.2429 110.064 87.2373 106.25 87.5711 104.51C92.5427 101.364 122.386 76.7543 122.386 76.7543L122.308 76.2571C118.658 76.5838 116.406 76.5838 112.266 76.5838C103.232 76.5838 98.9276 76.6691 94.6165 76.7543C95.3623 74.0981 96.4418 70.1208 97.0171 67.8836C97.5995 65.3196 98.5086 62.1662 99.091 59.2685H153.445C152.699 62.0881 152.038 64.652 151.378 67.2231C150.71 69.9574 149.553 74.3466 149.141 76.6691C144.169 79.8154 115.526 103.849 115.526 103.849L115.44 104.098C119.254 103.935 122.209 103.935 125.604 103.935C133.644 103.935 138.203 103.764 142.507 103.601C141.598 106.584 140.518 110.724 139.943 113.132ZM145.788 121.413C148.189 112.465 150.511 103.516 153.743 90.3409C157.053 77.081 159.29 68.1321 161.278 59.2685H182.33C179.929 68.1321 177.692 77.0029 174.46 90.2628C171.143 103.438 168.906 112.386 166.832 121.413H145.788ZM226.776 101.612C231.584 112.386 234.645 118.601 235.895 121.413H216.832C213.849 121.413 212.692 120.753 212.195 118.849C209.212 112.216 205.398 102.521 202.415 97.223H201.087C198.935 106.087 196.946 114.205 195.455 121.413H174.411C176.811 112.301 179.134 103.516 182.365 90.3409C185.675 77.081 187.834 68.2174 189.901 59.2685H210.952C208.629 67.3864 206.058 77.3367 203.494 87.6066H203.743C212.656 78.0256 221.072 69.1407 228.317 59.2685H250.746C247.031 63.9773 228.864 84.6946 220.895 91.8324C223.544 94.1549 225.284 97.4716 226.776 101.612Z" fill="white"/>
<path d="M65.8594 91.0086C62.7912 103.104 58.7287 105.341 50.4474 105.341C47.7131 105.341 46.5412 105.341 44.2188 105.178C45.0497 101.449 46.2074 96.804 47.7841 90.5114C49.1051 85.1208 50.5185 79.6521 51.8395 74.5952C54.4105 74.4319 56.0014 74.3467 58.402 74.3467C65.7742 74.3467 69.1761 77.5782 65.8594 91.0086Z" fill="white"/>
<path d="M254.574 119.965H251.207C250.994 120.817 250.803 121.662 250.483 122.919C250.22 124.006 250.007 124.744 249.815 125.476H251.477C251.563 125.05 251.69 124.482 251.832 123.814C252.308 123.814 252.756 123.8 253.232 123.8C254.063 123.8 254.077 124.105 254.077 125.199C254.091 125.412 254.127 125.469 254.311 125.469H255.867C255.81 125.256 255.796 124.851 255.774 124.411C255.725 123.644 255.362 123.43 254.531 123.331L254.546 123.295C255.575 123.168 256.101 122.798 256.335 121.882C256.69 120.504 255.966 119.95 254.581 119.95L254.574 119.965ZM254.752 121.946C254.645 122.372 254.254 122.585 253.338 122.585C252.791 122.585 252.344 122.571 252.131 122.571C252.223 122.152 252.33 121.719 252.45 121.278C252.806 121.257 253.374 121.243 253.622 121.243C254.581 121.243 254.894 121.371 254.744 121.939L254.752 121.946Z" fill="white"/>
<path d="M254.219 117.692C250.768 117.692 248.779 119.46 247.962 122.692C247.216 125.668 248.445 127.763 252.422 127.763C256.016 127.763 257.884 126.03 258.679 122.805C259.475 119.631 258.054 117.685 254.219 117.685V117.692ZM257.422 122.763C256.797 125.298 255.441 126.591 252.493 126.591C249.546 126.591 248.573 125.277 249.212 122.692C249.851 120.156 251.194 118.864 254.155 118.864C257.117 118.864 258.076 120.156 257.429 122.763H257.422Z" fill="white"/>
<path d="M123.423 149.382C123.274 149.78 123.175 150.234 123.026 150.682C120.874 150.582 117.919 150.533 115.064 150.533C112.209 150.533 109.46 150.582 107.457 150.682C107.607 150.334 107.706 149.979 107.756 149.68C108.509 146.776 106.151 145.376 99.794 145.376C93.4375 145.376 90.2344 147.827 88.4801 154.837C86.5767 162.443 88.5298 165.746 96.392 165.746C101.548 165.746 104.197 164.297 105.703 160.689C101.946 160.689 97.7415 160.739 94.5383 160.838C94.7869 160.085 95.2912 158.082 95.4403 157.287C95.7884 155.838 96.1435 154.581 96.3423 153.58C101.349 153.679 106.456 153.679 110.156 153.679C113.509 153.679 117.812 153.679 122.223 153.58C119.567 168.395 115.412 175.355 94.8935 175.355C76.8253 175.355 69.0128 168.196 72.7699 153.281C75.9233 140.767 85.5824 136.009 101.349 136.009C119.219 136.009 125.227 142.067 123.423 149.375V149.382Z" fill="white"/>
<path d="M177.834 136.918C171.925 143.125 159.361 158.09 155.256 163.345C153.906 168.8 153.004 173.004 152.706 174.51C150.256 174.411 146.498 174.411 143.544 174.411C140.589 174.411 136.839 174.411 134.432 174.51C134.929 172.962 136.136 168.7 137.535 163.196C136.186 157.791 130.98 142.926 128.075 136.918H144.993C145.44 138.92 146.598 143.778 147.294 147.834C147.741 150.44 147.997 152.742 148.196 154.588H148.75C149.751 152.784 151.001 150.582 152.805 148.082C155.66 143.928 159.616 138.92 160.916 136.918H177.834Z" fill="white"/>
<path d="M238.807 136.918C237.508 141.825 236.002 147.429 233.949 155.639C231.946 163.601 230.647 169.055 229.546 174.46H214.681C216.229 169.155 217.437 164.751 218.985 158.892C219.589 156.492 220.384 153.736 221.236 151.08L220.938 151.03C219.333 153.786 217.586 156.484 216.08 158.537L204.269 174.453H196.662L192.408 157.635C191.904 155.582 191.606 152.876 191.357 150.277L191.059 150.327C190.512 152.983 190.057 155.533 189.404 158.239C187.955 164.396 186.854 169.098 185.746 174.46H172.28C173.885 169.055 175.285 163.601 177.287 155.639C179.34 147.429 180.689 141.825 181.74 136.918H201.314C201.918 140.518 202.863 145.98 204.219 152.138C204.517 153.892 204.823 156.094 205.121 158.295C206.471 156.044 207.877 153.892 209.027 152.138C213.182 146.179 217.188 140.476 219.539 136.918H238.807Z" fill="white"/>
</g>
<defs>
<clipPath id="clip0_100_81">
<rect width="265" height="175.362" fill="white"/>
</clipPath>
</defs>
</svg>
