<svg width="320" height="242" viewBox="0 0 320 242" fill="none" xmlns="http://www.w3.org/2000/svg">
<g clip-path="url(#clip0_137_1300)">
<path d="M243.81 239.073L200.141 189.044H139.015L95.3462 239.073H30.471L74.1359 189.044H2.6377L36.0252 53.9003H80.3113L35.0692 2.06494H99.9424L145.184 53.9003H192.082L237.308 2.06494H302.215L256.969 53.9003H317.363L283.976 189.044H264.998L308.685 239.073H243.81Z" fill="black"/>
<path d="M297.672 4.12973L252.425 55.9631H314.725L282.359 186.978H260.456L304.141 237.008H244.748L201.079 186.978H138.077L94.4091 237.008H35.015L78.6795 186.978H5.27484L37.6424 55.9631H84.8547L39.6127 4.12973H99.0053L144.246 55.9631H193.023L238.248 4.12973H297.672ZM306.759 0H236.369L235.135 1.41456L191.145 51.8333H146.123L102.117 1.41456L100.883 0H30.5262L36.5009 6.8449L75.7682 51.8333H34.408L33.6325 54.973L1.265 185.988L0 191.108H69.5934L31.9032 234.293L25.929 241.137H96.2868L97.521 239.723L139.955 191.108H199.201L241.636 239.723L242.871 241.137H313.23L307.253 234.292L269.545 191.108H285.594L286.369 187.968L318.735 56.9532L320 51.8334H261.512L300.784 6.84494L306.759 0Z" fill="white"/>
<path d="M85.5531 71.2356C82.3732 74.4156 80.5969 76.2324 77.4165 79.4124V161.76L85.5531 169.894H93.5662L106.081 155.565V79.4124C102.901 76.2324 101.125 74.4156 97.9441 71.2356H85.5531Z" fill="white"/>
<path d="M69.1513 95.6692C65.9729 92.4913 64.1905 90.7087 61.0121 87.5308H52.0224C48.844 90.7087 47.0622 92.4913 43.8838 95.6692V145.469L52.0224 153.606H61.0121C64.1905 150.428 65.9729 148.647 69.1513 145.469V131.447H74.5022V109.684H69.1513V95.6692Z" fill="white"/>
<path d="M214.089 99.8967V161.76C217.228 164.94 219.045 166.715 222.225 169.894H234.492C237.673 166.715 239.449 164.94 242.63 161.76V79.4124L236.93 73.7139L214.089 99.8967Z" fill="white"/>
<path d="M259.025 87.5308C255.846 90.7088 254.064 92.4913 250.885 95.6693V109.684H245.54V131.447H250.885V145.469C254.064 148.647 255.846 150.428 259.025 153.606H268.014C271.193 150.428 272.975 148.647 276.153 145.469V95.6692C272.975 92.4913 271.193 90.7087 268.014 87.5308L259.025 87.5308Z" fill="white"/>
<path d="M40.9644 109.684H35.4707V131.448H40.9644V109.684Z" fill="white"/>
<path d="M146.103 109.684L190.146 59.1238L137.838 109.684H108.889V131.447H123.09L108.889 152.405L127.145 131.447L146.103 109.684Z" fill="white"/>
<path d="M284.529 109.684H279.077V131.448H284.529V109.684Z" fill="white"/>
<path d="M142.497 182.007L194.805 131.448H211.156V109.684H207.398L211.156 103.189L142.497 182.007Z" fill="white"/>
</g>
<defs>
<clipPath id="clip0_137_1300">
<rect width="320" height="241.137" fill="white"/>
</clipPath>
</defs>
</svg>
