<?xml version="1.0" encoding="UTF-8"?>
<svg id="Warstwa_1" xmlns="http://www.w3.org/2000/svg" version="1.1" viewBox="0 0 30 33">
  <!-- Generator: Adobe Illustrator 30.2.1, SVG Export Plug-In . SVG Version: 2.1.1 Build 1)  -->
  <path d="M9.8833,7.76666l4,3.96667-3.66675,3.66675-3.96655-4.00012L.55005,17.10004l9.87183,9.87183-.80518-.80518-1,1.03333-4.30005-4.29993,1.0332-1-1.8999-1.90015-2.8667,2.8667,8.06665,8.06665,2.8667-2.8667,2.90015,2.90002,5.69995-5.70007-4-3.96655,3.6665-3.66675,3.9668,4,5.66675-5.66663L15.55005,2.10004l-5.66675,5.66663ZM16.31665,25.26654l-1.8999,1.93347-10.1001-10.09998,1.93335-1.90002,10.06665,10.06653ZM14.21655,19.40009l-2.09985-2.1001,3.6333-3.66675,2.1333,2.1333-3.66675,3.63354ZM23.75,17.86664L13.6499,7.76666l1.90015-1.90002,10.09985,10.09998-1.8999,1.90002Z" fill="#00b4de"/>
  <polygon points="21.3833 5.86664 25.6499 10.13324 24.6499 11.16669 26.5166 13.03339 29.44995 10.16669 21.31665 2.03339 18.44995 4.96661 20.34985 6.86664 21.3833 5.86664" fill="#00b4de"/>
</svg>