<?xml version="1.0" encoding="UTF-8"?>
<svg id="Warstwa_1" xmlns="http://www.w3.org/2000/svg" version="1.1" viewBox="0 0 30 33">
  <!-- Generator: Adobe Illustrator 30.2.1, SVG Export Plug-In . SVG Version: 2.1.1 Build 1)  -->
  <path d="M13.3333,19.8v-3.3h3.3334v3.3h-3.3334ZM6.66667,19.8v-3.3h3.33333v3.3h-3.33333ZM20,19.8v-3.3h3.3333v3.3h-3.3333ZM13.3333,26.4v-3.3h3.3334v3.3h-3.3334ZM6.66667,26.4v-3.3h3.33333v3.3h-3.33333ZM20,26.4v-3.3h3.3333v3.3h-3.3333ZM0,33V3.3h5V0h3.33333v3.3h13.33337V0h3.3333v3.3h5v29.7H0ZM3.33333,29.7h23.33337V13.2H3.33333v16.5ZM3.33333,9.9h23.33337v-3.3H3.33333v3.3Z" fill="#00b4de"/>
</svg>