<?xml version="1.0" encoding="UTF-8"?>
<svg id="Warstwa_1" xmlns="http://www.w3.org/2000/svg" version="1.1" viewBox="0 0 30 33">
  <!-- Generator: Adobe Illustrator 30.2.1, SVG Export Plug-In . SVG Version: 2.1.1 Build 1)  -->
  <path d="M0,18.47301v-2.88397h5.278v2.88397H0ZM7.19651,11.25302l-3.75352-3.72837,2.05064-2.02515,3.72837,3.72803s-2.02549,2.02549-2.02549,2.02549ZM5.74782,24.94081c-.32886-.32953-.49329-.73094-.49329-1.20423,0-.47306.16477-.87391.4943-1.20255.32953-.32886.73094-.49329,1.20423-.49329.47306,0,.87391.16477,1.20255.4943.32886.32953.49329.73094.49329,1.20423,0,.47306-.16477.87391-.4943,1.20255-.32953.32886-.73094.49329-1.20423.49329-.47306,0-.87391-.16477-1.20255-.4943ZM8.12844,18.47301v-1.27364c0-1.90722.66857-3.52929,2.0057-4.8662,1.33713-1.33691,2.95942-2.00537,4.86687-2.00537s3.5294.66845,4.86586,2.00537c1.33646,1.33691,2.00469,2.95898,2.0047,4.8662v1.27364h-2.88397v-1.27364c0-1.10887-.38721-2.05075-1.16164-2.82562-.77465-.77465-1.7163-1.16197-2.82495-1.16197-1.10887,0-2.05086.38732-2.82596,1.16197-.7751.77487-1.16264,1.71675-1.16264,2.82562v1.27364h-2.88397ZM9.77197,30.30634c-.32886-.32953-.49329-.73094-.49329-1.20423,0-.47306.16477-.87391.4943-1.20255.32953-.32886.73094-.49329,1.20423-.49329.47306,0,.87391.16477,1.20255.4943.32886.32953.49329.73094.49329,1.20423,0,.47306-.16477.87391-.4943,1.20255-.32953.32886-.73094.49329-1.20423.49329-.47306,0-.87391-.16477-1.20255-.4943ZM13.79611,24.94081c-.32886-.32953-.49329-.73094-.49329-1.20423,0-.47306.16477-.87391.4943-1.20255.32953-.32886.73094-.49329,1.20423-.49329.47306,0,.87391.16477,1.20255.4943.32886.32953.49329.73094.49329,1.20423,0,.47306-.16477.87391-.4943,1.20255-.32953.32886-.73094.49329-1.20423.49329-.47306,0-.87391-.16477-1.20255-.4943ZM13.55801,7.47736V2.19936h2.88397v5.278h-2.88397ZM17.87223,30.25402c-.31008-.31075-.46512-.69472-.46512-1.15191,0-.45696.15549-.84049.46646-1.15057.31076-.31008.69472-.46512,1.15191-.46512.45697,0,.84049.15549,1.15057.46647.31008.31075.46512.69472.46512,1.15191,0,.45696-.15549.84049-.46646,1.15057-.31076.31008-.69472.46512-1.15191.46512-.45697,0-.84049-.15549-1.15057-.46647ZM22.79544,11.25302l-2.0342-2.02549,3.73709-3.72803,2.02515,2.02515-3.72804,3.72837ZM21.8444,24.94081c-.32886-.32953-.49329-.73094-.49329-1.20423,0-.47306.16477-.87391.4943-1.20255.32953-.32886.73094-.49329,1.20422-.49329.47306,0,.87391.16477,1.20255.4943.32886.32953.49329.73094.49329,1.20423,0,.47306-.16477.87391-.4943,1.20255-.32953.32886-.73094.49329-1.20422.49329-.47306,0-.87391-.16477-1.20255-.4943ZM24.722,18.47301v-2.88397h5.278v2.88397h-5.278Z" fill="#00b4de"/>
</svg>