<?xml version="1.0" encoding="UTF-8"?>
<svg id="Warstwa_1" xmlns="http://www.w3.org/2000/svg" version="1.1" viewBox="0 0 512 512">
  <!-- Generator: Adobe Illustrator 30.2.1, SVG Export Plug-In . SVG Version: 2.1.1 Build 1)  -->
  <polygon points="309.03339 0 188.9578 512 0 512 0 0 309.03339 0" fill="#e00000"/>
  <polygon points="512 0 512 512 188.9578 512 309.03339 0 512 0" fill="#00b4de"/>
  <path d="M412.91089,242.4114c-.2451.26104-4.87012,5.15639-10.9291,5.80919-1.59893.17421-3.29639.05047-5.03961-.52906-5.80933-1.93337-11.00928-10.81459-5.78413-16.13596,1.09954-1.12244,3.72933-2.13037,5.57794-1.01478l17.42332,10.52363-1.24841,1.34698ZM462.48016,259.14969c-2.28158.13059-5.86659-.13968-8.90869-3.14976-3.59878-3.55746-46.18588-65.17135-46.18588-65.17135l12.83275-49.29446-.71012-.66203s-8.68422,3.92644-15.77174,7.31668c-5.22973,2.4992-11.85453,4.28367-19.42544,3.58725-8.37491-.76731-106.47343-22.85927-106.47343-22.85927l-183.23601,114.72014,7.11273-25.96779-1.24845-.82701-66.30539,18.11981-8.56048,35.34829,1.24845.82701,59.28659-22.13768-16.85067,61.52916-24.80641,10.56725-16.97664,61.98733h36.20053l10.34953-36.77552,16.23674-5.74292-10.75957,42.51845h36.2005l14.40417-56.60877,38.93333-13.76959,88.79356,15.97783-1.86011,54.40052h31.88478l12.40205-45.28791,14.76378,2.22894-11.7927,43.05897h36.2005l14.06285-51.34919,19.05664-15.18536,24.90488,3.6401,46.18123-43.43242-9.9578,36.5556,40.93545-9.0462,11.75834-46.38043s-19.94083,1.03757-23.91984,1.26435" fill="#fff"/>
</svg>