<?xml version="1.0" encoding="UTF-8"?>
<svg id="Warstwa_1" xmlns="http://www.w3.org/2000/svg" version="1.1" viewBox="0 0 300 300">
  <!-- Generator: Adobe Illustrator 30.2.1, SVG Export Plug-In . SVG Version: 2.1.1 Build 1)  -->
  <path d="M124.84697,198.00285l-5.61741.00784-.00601,34.70557-4.34251.06419-2.64287,4.95195,75.36369.0352-2.76459-5.01135-4.27895-.01707-.02617-34.74583-5.60576.00719-.02071,34.74538-12.85588-.01353-.00104-7.95792,2.97379-.1411c.52271-.02481,1.44078-1.07027,1.43585-1.5403l-.04305-4.10059c-.35466-.59131-1.24522-1.4736-1.86597-2.04338l-29.20432.00363c-2.58186,2.27914-1.94263,1.5484-2.04707,5.48839-.01556.5874.25221,1.40894.60081,1.71716.44595.39427,1.18906.53868,1.83727.56752l1.95312.08688.00516,7.92241-12.83292.01582s-.01449-34.74806-.0145-34.74806ZM143.05267,224.72356l13.68211-.01131.03011,8.02591-13.7122.00537v-8.01997h-.00002Z" fill="#001139"/>
  <path d="M117.46236,177.70959c-.00156-.65556-.9627-1.22066-1.53195-1.19118l-6.67348.01268c-.54131.00104-1.20223.60756-1.20216,1.20839l.00338,28.30299c.00008.67789.60415,1.18394,1.23665,1.18533l6.61344.01443c.82378.0018,1.56569-.59279,1.56722-1.45222l.01893-10.71422,64.85896-.0025.0291,11.01183c.00125.47455.59879,1.02361,1.03554,1.15257l7.35497-.01501c.38564-.00079.90961-.79526.90956-1.17841l-.00191-28.32526c-.00002-.48451-.67148-1.18082-1.07732-1.18166l-6.90918-.01418c-.70062.06505-1.32521.68358-1.32553,1.43784l-.00511,12.71591-64.87014.007-.03098-12.97437.00002.00002Z" fill="#001139"/>
  <path d="M197.99249,181.48959l-3.63075.05978.00558,20.69977,3.61354.09344c.52121.01347,1.04218-.66995,1.04175-1.34109l-.01195-18.39175c-.00032-.47685-.63899-1.1264-1.01817-1.12016v.00002Z" fill="#001139"/>
  <path d="M101.90514,202.3578l3.45569-.09985-.00451-20.70457-3.43597-.06352c-.43136-.008-1.14656.57594-1.14726,1.09355l-.02509,18.57867c-.00085.62044.59921,1.21185,1.15714,1.19572Z" fill="#001139"/>
  <path d="M204.51498,188.03932l-3.02814.08931-.02451,8.00404,3.35011.12576c.47508.01785,1.16693-.83698,1.16508-1.40929l-.01764-5.46849c-.00246-.76411-.72311-1.36261-1.44492-1.34132v-.00002Z" fill="#001139"/>
  <path d="M93.87828,189.38397l-.00562,5.51732c-.00068.67.58851,1.34804,1.3317,1.33504l3.06639-.05367-.01991-8.08913-3.35909.01093c-.43141.0014-1.01306.8802-1.01347,1.27951Z" fill="#001139"/>
  <path d="M264.94211,224.61423l.05728-57.74043.0556-86.25049c-.45715-1.10058-1.1286-1.5708-2.1214-2.10512l-26.09938-14.04655-49.64726,8.79862c-1.48521.26322-2.62189.91021-2.49994,2.59665l.03505,23.0449-10.86961,1.72972-.07512-11.66488-3.99921-2.40885-33.32887,5.72923.0258-31.40144c-.35249-1.06867-1.08147-1.79399-2.15765-2.1651l-23.42564-11.37175-44.06671,8.63226c-1.65843.32488-2.58087.89003-2.57173,2.72578l.17511,35.22856,5.37594,2.35731.43222-.33444-.04735-34.38804,38.38149-7.53232.04825,101.33112.07407,10.42107,5.80605,2.34447-.01491-27.41736.02318-24.84963,13.9735-2.52601c1.49384.02013,2.74619-1.06579,2.60245-2.60065l.01654-11.43322,36.37898-6.42301.41405.33283.0769,12.03064c.3804.57625,1.13487,1.31754,1.81551,1.74594l14.87553-2.14903.00458,52.90231,5.99333-2.99522.00851-75.88397,44.18358-7.67611.11433,37.61402.00055,26.20241.08688,47.65565.02469,29.43628,5.81973,2.1179.08751-16.87653.0062-114.34352.02446-9.16903,17.77586,9.49409-.00452,139.77853c-3.79691-.4857-7.28677-1.864-10.78897-2.06174-3.9393.65424-7.64313,1.97037-11.65581,3.06548,1.69223.59618,3.03122.91362,4.70155,1.31078l36.98465,8.28674-34.40128,13.07069-179.37218.00362-38.96795-12.12387,44.41426-9.0721-3.22841-4.06297-11.31189,1.90993-.04436-50.50191,15.34205-17.51141-3.72729-2.99461-11.60294,11.76807-.27332-18.56938c-.00504-.34225-.58449-.94978-.7766-.97902l-3.78027.0072c-.27613.09044-.80258.60406-.81047.94286l-.42495,18.27957-11.89554-11.46701-3.50537,3.06049,15.31872,17.16341-1.16082,52.13963-45.6428,8.8015,60.80711,19.0636,183.2654-.002,14.01509-5.67435,37.55945-14.39688-32.88144-7.95383-.00006-.00006ZM130.52345,93.41635l-3.779.70444c-.49895.093-1.38779,1.18218-1.38857,1.72027l-.01794,12.13647-10.82807,1.87897.007-53.93664,16.00671,7.78354-.00015,29.71295.00002.00002Z" fill="#001139"/>
  <path d="M42.90184,179.81694l1.15413-5.77959-13.08812-4.29103-10.44215-12.51601-.03038-18.71011,7.48344-9.63361,1.54261-13.69816,6.66182-8.87302,16.84977-5.86476,15.00276,6.47365,5.42468,7.04009,1.56878,14.31966,7.98544,10.04692-.02397,18.83852-10.42485,12.33884-12.44888,4.56537c.39539,1.93204.94573,3.73428,1.69127,5.6723l14.36572-5.34819,12.54731-15.26276.11906-11.59766-.02649-11.14835-8.20946-10.43284-1.54468-14.12235-7.61326-9.85602-18.2334-7.84041-20.63175,7.22152-8.63489,11.42615-1.55983,13.8929-7.5164,9.73103-.24705,22.83987,12.93539,15.54021,15.34338,5.02782v.00002Z" fill="#001139"/>
  <path d="M164.24733,113.96358l-35.83418,6.29906-.10854,8.3831c-.00476.36827.50278.99632.86913.92993l35.77982-6.48511.04247-8.22836c.00143-.27719-.51552-.93959-.74866-.89862h-.00003Z" fill="#001139"/>
  <path d="M128.69673,166.63412c.14024.11948.50562.14929.80939.09599l35.43387-6.21571.06982-8.08694c.00175-.20415-.23221-.80553-.41763-.87923-.18539-.07368-.58482-.10535-.90164-.05177l-35.21169,5.95293c-.13435,1.32726-.38319,8.67262.21788,9.18472v.00002Z" fill="#001139"/>
  <path d="M164.99158,133.61627c.00063-.21661-.48608-.84241-.70996-.80475l-35.85703,6.03223-.01897,9.38651,36.56203-6.34163.02393-8.27235Z" fill="#001139"/>
  <path d="M208.06998,160.60229l-9.11804,1.65686-.02063,10.8866c-.00038.20618.19266.74196.35408.8308.16147.08887.54987.12418.75974.08456l8.08131-1.52554-.05647-11.93326.00002-.00002Z" fill="#001139"/>
  <path d="M216.13084,159.06796l-.01556,10.69301c-.0005.3399.11922.92342.30089,1.0014.18169.078.65308.14301.85147.10638l8.0892-1.49397-.06212-11.90752-9.16386,1.60071-.00002-.00002Z" fill="#001139"/>
  <polygon points="216.14854 124.8775 225.33682 123.31915 225.36037 111.43071 216.14311 113.04961 216.14854 124.8775" fill="#001139"/>
  <path d="M216.09749,100.55877c-.00211.35496.48196.95094.75323.8985l8.49065-1.64142.01569-11.82423-9.19473,1.60753-.06483,10.95962Z" fill="#001139"/>
  <path d="M225.06749,134.89069c-.17809-.04713-.6539-.09879-.84448-.06227l-8.09251,1.55099.06412,11.87253,9.14659-1.63435.02496-11.0798c.00034-.14204-.16525-.6118-.29869-.64711l.00002.00002Z" fill="#001139"/>
  <path d="M198.94862,92.87961l-.01601,11.06146c-.00044.31122.64049.7656.97778.69877l8.2019-1.62513-.02995-11.84405-9.13371,1.70895h-.00002Z" fill="#001139"/>
  <polygon points="199.01047 128.08984 208.10864 126.4564 208.08533 114.58597 198.95029 116.32472 199.01047 128.08984" fill="#001139"/>
  <path d="M199.60699,151.39697l8.4668-1.60667-.01176-11.89246-9.10257,1.72734-.03287,10.80222c-.0007.22659.41612,1.0197.68037.96956l.00003.00002Z" fill="#001139"/>
  <polygon points="92.7261 93.07077 92.75029 104.35526 101.03047 102.65241 101.00723 91.3714 92.7261 93.07077" fill="#001139"/>
  <polygon points="101.01401 112.1012 92.73004 113.79138 92.74223 125.02544 101.02974 123.33585 101.01401 112.1012" fill="#001139"/>
  <polygon points="92.72383 71.7992 92.74518 82.95448 101.02302 81.21435 100.96216 70.00488 92.72383 71.7992" fill="#001139"/>
  <polygon points="85.52751 73.45594 77.39551 75.19198 77.39179 86.29392 85.53697 84.64654 85.52751 73.45594" fill="#001139"/>
  <polygon points="93.17131 134.15292 93.65557 145.11584 101.08492 143.65001 101.00275 132.62839 93.17131 134.15292" fill="#001139"/>
  <path d="M81.04238,106.84209l4.50792-.96473-.03747-11.23115-8.09629,1.72436c-.02684,8.05691-.57043,4.25887,3.62584,10.47152Z" fill="#001139"/>
</svg>