<?xml version="1.0" encoding="UTF-8"?>
<svg id="Warstwa_1" xmlns="http://www.w3.org/2000/svg" version="1.1" viewBox="0 0 300 300">
  <!-- Generator: Adobe Illustrator 30.2.1, SVG Export Plug-In . SVG Version: 2.1.1 Build 1)  -->
  <path d="M150,285.17676c-1.34961,0-2.33643-.41699-3.30078-1.39453-.64551-.63184-1.18018-1.36035-1.63184-1.99512-.06885-.0957-.10449-.14453-.13867-.19922l-.25146-.36035c-.1543-.20996-.2998-.40625-.4541-.63281-.45068-.62988-.91211-1.28711-1.42725-2.02148l-.62158-.88379c-1.63623-2.34277-5.125-7.38281-10.0835-14.78223-1.87158-2.81738-4.01025-6.04102-6.31982-9.57617l-2.36523-3.64258c-3.80811-5.87305-7.23291-11.25781-10.46973-16.46191l-.16455-.25684c-3.99219-6.39746-7.61865-12.36133-11.08008-18.2207l-.13281-.22559c-.375-.63965-.74951-1.27832-1.12402-1.90234-.10498-.16895-.17773-.29883-.25146-.42969l-.22803-.39746c-15.94727-27.56348-42.69287-78.38184-42.71924-109.18701.0083-.08984.01367-.1875.01611-.29102.02979-.56006.07471-1.15283.11963-1.74463.05762-.79248.12061-1.43994.18311-2.08545.15234-1.45312.34082-3.12793.60498-4.76172.05811-.46582.11182-.80371.1792-1.12793l.02734-.14893c.07129-.46143.12891-.84033.20215-1.20557.12744-.70752.24268-1.33154.37354-1.95459.09424-.51904.18408-.9375.28857-1.37061,1.31885-6.08057,3.27344-12.05518,5.81445-17.78125.29395-.65283.59521-1.30664.91309-1.9751.64795-1.36572,1.3042-2.67236,1.95068-3.88574.3374-.64062.68164-1.26416,1.02686-1.88867.26562-.47949.521-.91797.77881-1.35986l.32959-.56592c.3418-.57568.71973-1.18311,1.09668-1.77295.40479-.67725.76758-1.24463,1.1626-1.82861.37842-.59131.73535-1.10938,1.0835-1.61572l.146-.21289c1.22705-1.79199,2.5791-3.60254,4.01953-5.38135.85205-1.06494,1.68701-2.06201,2.48438-2.96826.93311-1.09375,1.94385-2.19385,3.01367-3.28125.52783-.54492,1.03271-1.06641,1.53662-1.5708,1.50732-1.50635,3.09326-2.9751,4.71387-4.36475.39209-.34424.75391-.64746,1.11572-.95068l.57861-.48682c.96338-.80322,2.06201-1.66895,3.35596-2.64258,1.94873-1.44385,3.68506-2.65234,5.30078-3.68945,1.13672-.75732,2.33301-1.49414,3.67139-2.26123,1.64648-.97266,3.33301-1.89258,5.02588-2.74219l.22949-.104.51709-.2583c1.07568-.53809,2.25146-1.08838,3.49512-1.63574l.42334-.18311c1.59863-.68701,2.83252-1.19336,4-1.64062,4.33203-1.65332,8.88281-2.99805,13.52489-3.99707.52734-.11182.92822-.19775,1.33008-.26855.3623-.07275.66748-.13135.95703-.17432l.17188-.03076c.80176-.16602,1.64258-.31299,2.59375-.45361,4.75049-.74414,9.59521-1.12061,14.4082-1.12061,4.81445,0,9.65332.37549,14.38184,1.11621.99023.14697,1.81445.29102,2.59863.45312l.18359.03271c.2998.04346.55664.09521.8125.14648.56836.104.9873.19336,1.40723.2832,4.70215,1.01123,9.26855,2.35986,13.60645,4.01465,1.46875.56299,2.76562,1.09473,3.96289,1.62549l.18066.0752c1.33984.58496,2.61426,1.17822,3.76758,1.75635l.7041.35156.02539.00146c1.70508.85596,3.3877,1.77344,5.00586,2.72949,1.18555.67969,2.38867,1.41992,3.68945,2.26953,1.90234,1.22119,3.68848,2.46387,5.31543,3.69775,1.30176.98047,2.40723,1.85205,3.38281,2.66553l.66699.56055c.32422.27295.65039.54639.97461.83203,1.54297,1.32275,3.09668,2.76172,4.76172,4.40723.39648.396.80078.81299,1.20801,1.23291l.2959.30518c.96289.97754,1.94824,2.0498,3.0166,3.28271.96973,1.10254,1.75391,2.03809,2.47168,2.94922,1.37109,1.6958,2.69531,3.46924,4.05566,5.43115l.16211.23438c.35059.50928.69238,1.00586,1.00879,1.50391.41895.62988.80273,1.21973,1.15332,1.80908.4375.68652.81543,1.29443,1.17676,1.90186l.2998.51709c.2627.44922.52051.89062.76953,1.3418l.17188.31152c.29297.53174.58496,1.06348.86523,1.5957.66113,1.24072,1.31836,2.55078,1.95703,3.89746.32129.67578.62207,1.32959.92383,1.99902,2.53418,5.70898,4.48145,11.66016,5.78711,17.68311.12109.50928.21289.93066.29004,1.35352.12402.6001.21973,1.12256.31445,1.63721l.06738.36523c.08398.42334.14551.81934.2041,1.21582l.03125.17188c.07227.34082.12402.66846.16211.99707.2627,1.6416.46094,3.1958.61426,4.79492.07129.73975.13477,1.39209.18262,2.06055.05078.6543.09961,1.28467.13281,1.91357,0,.07275.00684.18408.01562.29541-.00195,30.71484-26.77051,81.58008-42.72656,109.16016,0,0-.38281.66992-.44238.7666-.39453.6543-.76074,1.2793-1.12598,1.90234l-.16602.28223c-3.43066,5.81152-7.05566,11.77246-11.08301,18.22559l-.17969.29199c-3.94141,6.30664-7.36035,11.67773-10.44727,16.41602l-2.36816,3.64746c-2.04492,3.14552-3.95605,6.01952-5.6709,8.59862l-.65332.98145c-5.02051,7.49316-8.47266,12.47754-10.08301,14.78125l-.55469.78906c-.53906.76953-1.01953,1.45508-1.44238,2.04492-.19629.28516-.34082.48145-.47656.66406l-.53613.73633c-.45898.63379-.93262,1.28711-1.46484,1.80664-1.0127,1.02539-1.97754,1.43848-3.34473,1.43848l-.00005.00003ZM150,24.39746c-22.24561,0-43.15869,8.68262-58.88672,24.44824-2.36328,2.34521-4.60254,4.86377-6.65186,7.48242-.7583.95557-1.53955,1.99561-2.38525,3.17432-.6377.9043-1.4668,2.09668-2.26904,3.35889-.69775,1.08203-1.39893,2.22998-2.0791,3.40527-.54834.96484-1.26123,2.23584-1.93896,3.5708-2.80322,5.47705-4.98633,11.22803-6.4873,17.08984-.39697,1.5459-.69531,2.83252-.93896,4.04932-1.12207,5.42725-1.69189,11.06494-1.69189,16.74951,0,13.08691,7.27295,41.03857,41.92041,99.88135,1.40723,2.37988,2.81104,4.73633,4.21533,7.07617.91748,1.54102,1.8584,3.09277,2.79932,4.62695,7.00635,11.51074,14.75146,23.65918,23.01855,36.10449l.60742.91309c.521.78223,1.0332,1.55078,1.53564,2.29297.82812,1.24902,1.65088,2.4668,2.43994,3.63477l.49512.73242c.74756,1.10059,3.4502,5.04492,3.4502,5.04492l2.84668,4.1748,4.23291-6.19727c.6543-.9541,1.34277-1.95898,2.05957-3.01562.66797-1.00488,1.34961-2.0166,2.05957-3.06836l.88574-1.31348c.52148-.76953,1.06055-1.57812,1.6084-2.40234l.52734-.79297c8.08105-12.16406,15.82812-24.31445,23.02637-36.11621.93555-1.52441,1.87695-3.07617,2.80078-4.62891,1.39746-2.3291,2.80176-4.68555,4.20605-7.06055,34.64941-58.84521,41.92285-86.79834,41.92285-99.88623,0-5.68115-.57031-11.32422-1.69531-16.771-.24023-1.20117-.53809-2.48438-.93652-4.03174-1.49805-5.85352-3.68164-11.60547-6.49121-17.09521-.51855-1.02148-1.11133-2.11475-1.92188-3.54053-.68945-1.19141-1.39648-2.34863-2.10352-3.44629-.76855-1.21045-1.56348-2.35547-2.24023-3.31494-.84961-1.18652-1.63867-2.23682-2.41602-3.21631-2.03223-2.58105-4.26758-5.09424-6.64062-7.46777-15.74414-15.76318-36.65625-24.44482-58.88379-24.44482l-.00003-.00002Z" fill="#001139"/>
  <path d="M213.75665,107.72928c0-35.21334-28.54604-63.75932-63.75932-63.75932s-63.75932,28.546-63.75932,63.75932,28.54603,63.75932,63.75932,63.75932,63.75932-28.54604,63.75932-63.75932ZM134.51556,131.83263l-2.67596,2.67596h-9.71144c-1.04504-1.04501-1.63096-1.63092-2.67596-2.67596v-16.57166h-1.67371v7.36629l-2.67596,2.67596h-9.71149c-1.04503-1.04503-1.63087-1.63092-2.6759-2.67596v-29.79593c1.04503-1.04501,1.63087-1.63092,2.6759-2.67596h9.71149c1.04504,1.04503,1.63091,1.63095,2.67596,2.67596v7.36629h1.67371v-16.57166c1.04499-1.04503,1.63091-1.63092,2.67596-2.67596h9.71144c1.04498,1.04503,1.63091,1.63092,2.67596,2.67596v16.57166h30.96355v-16.57166c1.04504-1.04503,1.63097-1.63092,2.67596-2.67596h9.71144c1.04504,1.04503,1.63097,1.63092,2.67596,2.67596v16.57166h1.67371v-7.36629c1.04504-1.04501,1.63091-1.63092,2.67596-2.67596h9.71144c1.04504,1.04503,1.63091,1.63095,2.67596,2.67596v29.79593l-2.67596,2.67596h-9.71144l-2.67596-2.67596v-7.36629h-1.67371v16.57166c-1.04498,1.04503-1.63091,1.63095-2.67596,2.67596h-9.71144l-2.67596-2.67596v-16.57166h-30.96352v16.57166h-.00003Z" fill="#001139"/>
  <path d="M263.02365,174.98857c-.43652-.12109-.88086-.2168-1.32129-.28516-.58105-.08984-1.17383-.13574-1.76074-.13574-2.08398,0-4.15137.57227-6.03027,1.66211-1.91016-2.05957-4.38379-3.40527-7.05078-3.82031-.58008-.08984-1.16992-.13574-1.75195-.13574-2.0918,0-4.1084.56641-6.01172,1.69629-3.83789,2.38965-6.06152,6.64746-5.80273,11.11133.16016,2.79102.9082,5.10742,2.2207,6.88379l9.5957,13.00195,3.71289,4.89355,17.98535-13.27539c2.88281-2.55469,4.51855-5.83105,4.73047-9.47363.33008-5.6582-3.17285-10.64355-8.51562-12.12305ZM262.30002,191.06572l-12.03711,8.88867-8.87109-11.95117c-.97266-1.30664-1.26172-3.16406-.81055-5.03906.52344-1.72363,1.77734-3.00098,3.35352-3.41406.40137-.10547.80664-.1582,1.20605-.1582.23242,0,.46387.01758.69531.05371,1.10254.1709,2.13184.76172,2.89844,1.66406.5498.64453,1.04102,1.31836,1.58594,2.06543.30176.41504.60742.83301.92773,1.25391l1.19141,1.55762,4.47949-3.28223c.89648-.65625,1.96777-1.01758,3.01758-1.01758.22852,0,.45508.0166.67676.05078.26953.04297.53418.10938.78613.19922,1.91895.67578,3.11328,2.46777,3.04395,4.56445-.06445,1.91602-.86523,3.62207-2.14355,4.56445Z" fill="#001139"/>
  <path d="M20.89109,52.80176c-.92773-2.74121-3.44873-4.58301-6.27295-4.58301-.25049,0-.50293.01465-.7583.04395-.25293.0293-.50537.07275-.75098.13037-1.35596.31787-2.57959,1.07275-3.51807,2.15771-.84912-.34717-1.74609-.52832-2.63428-.52832-.50977,0-1.01904.05859-1.51514.1748-1.48438.34863-2.7749,1.19629-3.74365,2.46924-1.49854,2.05713-1.75928,4.75-.68115,7.02783.66846,1.41064,1.54834,2.45752,2.61523,3.11084l7.22803,4.4375,3.17139,1.88818,6.39893-10.42871c.95654-1.92432,1.11572-3.96484.46094-5.90039h0Z" fill="#001139"/>
  <path d="M33.04373,231.27812c-2.2085,0-4.06055-1.62207-4.50391-3.94434l-3.51172-18.39746c-.46729-2.4502,1.52881-4.60449,3.61279-5.00488l7.46729-1.43555c.15625-.0293.32373-.04492.49951-.04492.52881,0,1.14062.13281,1.88477.41309,1.48584-3.1582,2.17773-6.52441,2.05762-10.01758-.08936-2.58887,1.49902-4.77344,3.0127-5.70703,1.15039-.70996,2.43604-1.08496,3.71777-1.08496,1.08691,0,2.14893.25879,3.15674.77051,4.76855,2.41797,5.09033,7.87305,5.06738,12.27148,1.08838-.18555,2.11084-.37891,3.26172-.65039.55518-.12988,1.13135-.19629,1.71289-.19629,2.06494,0,4.10596.84668,5.45996,2.26562,1.20996,1.26855,1.80615,2.86816,1.72412,4.62598l-.6709,14.32422c-.1582,3.37402-2.26514,5.84668-5.49854,6.45215l-13.09961,2.45117-3.97705-.79004c-.97754,1.10254-1.89404,1.98828-3.4126,2.27539l-7.09814,1.3418c-.28711.05469-.57715.08203-.86279.08203ZM43.93484,220.93925c.74658.01953,1.45215.21777,2.13525.41016.6001.16797,1.16699.32715,1.65137.32715.06836,0,.13574-.00293.20264-.00977,2.53906-.27148,4.95215-.74902,7.50684-1.25586,1.48291-.29395,3.0166-.59766,4.57568-.85645.24072-.04004.43604-.32324.45459-.65723l.72461-13.16797c.0127-.2334-.05957-.43457-.21533-.59863-.18213-.19238-.4502-.30371-.73535-.30371-.07031,0-.1416.00684-.21289.02148l-7.69629,1.50879c-.20117.03906-.40234.05859-.6001.05859-.78906,0-1.54736-.30957-2.08105-.84961-.52393-.53027-.80713-1.25195-.79834-2.0332l.08887-7.6748c.01221-1.04199-.53857-2.45703-1.22705-3.15332-.24414-.24707-.41895-.3125-.47754-.3125-.33447.20703-.33301,1.38086-.33203,2.23828.00098,1.06348.00244,2.26953-.26953,3.5459-.45703,2.14355-2.0874,8.84277-4.95605,10.88477l2.26172,11.87793h-.00002Z" fill="#001139"/>
  <path d="M297.61792,118.94984c-.03513-2.16556-1.41122-4.05398-3.42404-4.699-.17853-.05721-.36179-.10442-.55048-.14187-.18695-.03689-.3768-.06357-.565-.0786-1.039-.08314-2.0835.17541-3.00015.73433-.52588-.44136-1.12378-.77532-1.75681-.97817-.36331-.11642-.73965-.19098-1.11978-.22146-1.13754-.09054-2.25089.21884-3.23206.90483-1.53784,1.12388-2.33868,2.98354-2.09055,4.8532.15424,1.15804.54224,2.10511,1.15341,2.8144l4.13797,4.81342,1.82901,2.07002,6.94235-5.97114c1.12122-1.153,1.70071-2.57094,1.67609-4.09996l.00003-.00002Z" fill="#001139"/>
</svg>