<?xml version="1.0" encoding="UTF-8"?>
<svg id="Warstwa_1" xmlns="http://www.w3.org/2000/svg" version="1.1" viewBox="0 0 300 300">
  <!-- Generator: Adobe Illustrator 30.2.1, SVG Export Plug-In . SVG Version: 2.1.1 Build 1)  -->
  <path d="M122.2458,192.43982l-55.15786,25.39555-8.91935,10.91921-.0495,22.64471-8.08118.03175.00107-25.27902,12.24031-14.94839,52.0988-24.06091.01005-20.02507-11.58453-10.01576-7.12692-20.56393-2.8476-1.13492-7.26408-6.52736c-.63669-.57212-.99826-1.44485-.9973-2.38288l.02703-26.27418,4.32879-3.74371.00459-40.42117,20.99976-25.29366,55.85184-5.5565,36.62984,21.98976.02299,12.74868,9.38044,8.08172-.04647,28.67769,3.36099,2.92446.00597,28.33746-8.73352,7.16413-2.22127.91665-6.89483,20.9795-11.69664,9.96727-.05308,14.43328-7.83751.01844-.13845-7.57121-8.9109,7.57385-37.08936-.00158-9.22579-7.65876-.0863,18.65491ZM185.47936,67.78272l15.74455,22.53008c.66726.95484,1.29021,1.61235,2.59715,1.84638l-.07341-20.44492-9.34165-7.94205-.02421-11.93328-30.41374-18.21333-50.12644,4.96573-16.94955,20.4491-.01952,31.27713c1.20564-.50473,2.14616-1.31255,2.92026-2.41104l18.38259-21.25621,43.23784,6.12667,24.06614-4.99426ZM190.41578,152.58754l5.83178-17.6487,1.18981-5.50489,4.84065-.95193,4.87498-4.1412.00457-20.9295-10.70777-6.23258-14.37561-20.68031-20.39813,4.2298-40.42734-5.70426-17.35599,19.79723c-3.16968,3.61551-7.66853,5.43304-11.28187,8.82883l-.04504,20.86702c1.67156,1.43865,2.82254,3.65608,4.74078,4.11587l4.83677,1.15934,1.45249,6.01611,6.04273,16.7452,24.48867,20.90212,31.96118.0076,24.32735-20.87574Z" fill="#001139"/>
  <path d="M258.26199,224.51853l-20.09606,50.2779-44.94701-.00625-31.60705-35.34296-2.80373-24.26906,7.04785-6.44293,1.948-.58776,3.3523-11.57207,20.13823-11.39374,8.01596.01355,8.02031,6.10082,3.3792-39.07648,17.3124-.02716,6.16332,6.43712-.53735,8.39731,1.49961-4.1568,9.70098-2.81397,13.32016,8.26784-2.93405,11.32764,5.19893-.98708c2.70855,1.53674,5.91163,2.78325,8.3525,4.7241,1.73063,2.13527,2.42446,4.9873,3.86942,7.62607l-14.39392,33.5039ZM168.91151,235.82197l28.09462,31.2035,36.03888-.01234,17.88341-44.70865,13.40259-30.81001c-.89245-3.34369-1.93643-2.9705-4.82268-4.63556l-3.23566.96448-12.47714,27.71456-6.00323-2.5142,11.87699-41.08656-5.70194-3.57708-3.35847,1.03724-5.56672,18.28318-6.41772,21.24396c-2.35869-.70771-3.85561-1.26205-5.76108-2.13826l3.65111-45.08208c-.21899-.56702-1.09447-1.856-1.67003-1.85992l-7.31171-.04983-2.07036,23.92576-1.48046,18.69085-4.6619.05424-12.82464-9.71438c-.79588-.14238-2.39955-.28138-3.07743-.00614l-16.01285,8.91633-1.84193,6.43435,3.90235,2.73141,14.58748-7.72665,13.47033,11.91274.82109,17.57908-15.525,9.39532-15.23085-10.81205-2.61526-13.4924c-.79187-.64193-1.85073-1.53022-2.67608-2.1663-.51711-.39854-2.14527-.31905-2.6536.12708l-2.93805,2.57853,2.20592,17.59982ZM200.62628,228.59741l-.49409-10.06205-7.19958-6.32007-10.39211,5.42804,1.81645,9.09553,8.75948,6.25076,7.50985-4.3922Z" fill="#001139"/>
  <path d="M45.48886,125.9998c-4.96559-.67899-9.77129-.47011-14.75801-.05991l-8.22628,8.67206-.03657,15.30568,6.10244,8.6315-.03787,10.56577-22.13894,12.94087-.00793,12.28323-6.38569.01993.04464-16.15003,22.2949-13.02429.04405-4.61979-6.21818-8.51848.00051-19.98665,11.80822-12.3777c6.85391-.74902,13.41154-.78431,20.15522-.02945l11.7566,12.43468-.00336,19.91952-6.09545,8.49368.11756,4.54993,21.35511,12.14654.05603,9.36475-6.23168.00278-.0432-5.48951-21.41919-12.03513-.05059-10.52569,5.98518-8.48305.02554-15.45967-8.09305-8.57157Z" fill="#001139"/>
  <path d="M268.8443,161.83064l-.12808-9.51872,6.14169-8.79658-.01086-16.25418-8.42681-8.70839c-5.11171-.48008-10.12245-.44303-15.24886.02384l-8.23634,8.66767-.03768,17.24921-6.32151.01403.01542-19.81534,11.8516-12.43348c6.84659-.75521,13.55133-.71608,20.55604-.13811l12.19015,12.56526.00342,20.68927-6.01305,8.73538-.06695,3.51227,24.87971,13.04016.00782,17.95911-6.27799-.0122.00053-13.79101-24.87825-12.98819Z" fill="#001139"/>
  <polygon points="127.61998 142.70244 132.68585 137.06442 141.2308 144.50294 158.84218 144.48601 167.34971 137.01786 172.42466 142.66692 161.66321 152.24637 138.36221 152.27069 127.61998 142.70244" fill="#001139"/>
  <polygon points="132.8275 115.26248 122.25112 115.36276 122.21109 103.56669 132.79291 103.48158 132.8275 115.26248" fill="#001139"/>
  <polygon points="177.7915 115.28908 167.21483 115.34176 167.21863 103.49495 177.73236 103.49635 177.7915 115.28908" fill="#001139"/>
</svg>