<?xml version="1.0" encoding="UTF-8"?>
<svg id="Warstwa_1" xmlns="http://www.w3.org/2000/svg" version="1.1" viewBox="0 0 300 300">
  <!-- Generator: Adobe Illustrator 30.2.1, SVG Export Plug-In . SVG Version: 2.1.1 Build 1)  -->
  <path d="M232.05447,231.28685l-20.90646-51.39316,13.90579-14.15289,12.91746-31.41899.02968-32.87187-11.5503-33.8503-24.09219-26.70138-34.07764-15.69469-36.80208.0033-34.04468,15.72762-24.11855,26.70468-11.56016,33.83713.03623,32.78291,13.1448,31.70233,13.90579,13.97828-28.11468,69.53231,1.87453,3.87755,33.03987-5.88717,18.12598,27.33392,5.05037-1.06082,28.2893-68.80753c2.02938-.13506,3.84132-.14825,5.88385.06589l28.25636,68.8273h5.69279l17.4605-26.34228,32.12732,5.673,2.74421-3.69964-7.21807-18.16551ZM126.36245,235.30606l-11.24061,27.20871-14.48234-21.55218-3.53162-1.72628-25.72624,4.50348,18.7717-46.35926,4.52655-11.26697,4.13451,4.23664,32.51606,14.44938,7.44541.07249-12.41342,30.43398ZM133.32359,196.65906l-29.7685-13.22716-21.64113-21.96728-12.01481-29.12937.0033-29.53131,10.53889-30.81283,21.68396-24.03949,31.18512-14.47244,33.09916-.00987,31.25099,14.48232,21.60158,23.89783,10.65093,31.01378-.00989,29.40612-11.99171,29.21174-21.71692,22.02987-29.63675,13.1448-33.23423.0033ZM203.51808,239.33844l-4.27617,1.8943-14.26491,21.32158-23.67379-57.64931,7.20492-.07906,32.47651-14.45268,4.28936-4.27617,14.82165,36.29806,8.55893,21.31499-25.1365-4.37172Z" fill="#001139"/>
  <path d="M164.58445,107.515c-1.97666-1.3672-4.12793-3.77873-5.55111-5.75539-3.14946-4.36842-4.06532-9.54396-5.47864-14.77225l-7.31363.0033c-1.61098,5.29086-2.45434,10.57185-5.6862,14.94357-1.4759,1.99643-3.66011,4.34536-5.64996,5.70266-4.59244,3.13299-9.80424,3.99285-15.13793,5.41275l-.0527,7.37952c5.19533,1.73617,10.64431,2.48731,15.37512,5.6236,1.90087,1.25848,4.12462,3.65024,5.45228,5.54124,3.1495,4.48702,4.06866,9.70871,5.64337,14.9765l7.47179-.02636c1.4759-5.43252,2.49387-10.46972,5.56426-14.93367,1.2519-1.82181,3.40977-4.13781,5.24805-5.38309,4.66493-3.15937,10.03487-4.10487,15.48713-5.70596l.01975-7.47177c-5.35345-1.52203-10.77938-2.33576-15.39158-5.53464ZM160.05461,119.823c-2.73436,2.21715-5.30073,4.76704-7.35316,7.65956-1.20907,1.70322-1.91734,3.88413-2.8365,5.58407-1.03775-2.17434-1.7823-4.58257-3.31422-6.33851-2.08206-2.38846-4.19381-4.56278-6.54274-6.66793-1.57471-1.4133-4.02909-2.0096-5.95302-3.18571,1.81851-1.26177,4.26957-1.8877,5.9003-3.35703,2.47083-2.22374,4.68467-4.51338,6.89197-7.02703,1.39028-1.58132,2.05902-3.93026,3.02431-5.64337,1.10692,1.89102,1.72958,4.151,3.02097,5.6829,2.13149,2.52355,4.34864,4.83623,6.81946,7.01386,1.65381,1.45943,4.13123,2.01619,6.03213,3.28454-1.76251,1.16624-4.06862,1.67688-5.68949,2.99465Z" fill="#001139"/>
  <path d="M183.80733,155.36197l-14.73953-14.75869c1.61635-1.76617,3.11669-3.28698,4.88162-4.79616l14.54464,14.81499-4.68673,4.73986Z" fill="#001139"/>
  <polygon points="125.94252 97.91419 111.29396 83.0741 116.03984 78.20446 130.71752 93.0266 125.94252 97.91419" fill="#001139"/>
  <polygon points="173.88168 97.92712 169.06929 93.09539 183.7466 78.22322 188.48008 82.98578 173.88168 97.92712" fill="#001139"/>
  <polygon points="116.10953 155.35136 111.30599 150.60525 125.93805 135.74734 130.69986 140.54242 116.10953 155.35136" fill="#001139"/>
  <polygon points="113.11841 120.34494 96.629 120.36799 96.62278 113.14423 113.09111 113.15075 113.11841 120.34494" fill="#001139"/>
  <polygon points="203.21081 120.358 186.62117 120.35832 186.64431 113.16292 203.11742 113.12904 203.21081 120.358" fill="#001139"/>
  <polygon points="153.38676 79.9547 146.52704 79.97989 146.48956 63.44168 153.37043 63.45437 153.38676 79.9547" fill="#001139"/>
  <polygon points="153.3969 170.02257 146.51141 170.10698 146.49605 153.62568 153.35795 153.60204 153.3969 170.02257" fill="#001139"/>
</svg>