<?xml version="1.0" encoding="UTF-8"?>
<svg id="Warstwa_1" xmlns="http://www.w3.org/2000/svg" version="1.1" viewBox="0 0 300 300">
  <!-- Generator: Adobe Illustrator 30.2.1, SVG Export Plug-In . SVG Version: 2.1.1 Build 1)  -->
  <path d="M36.14128,232.02531l15.3175-3.84618,9.18659,3.65213-22.44401,6.15588-17.84555,4.92471,43.65783,15.74221,51.00072-.00614,8.81162,6.49663-61.18809.04025L0,242.15963l29.35057-8.19781.05386-13.05278.00069-68.29239.00311-104.73506c.00003-.97501-.13782-2.02307.73161-2.45797l24.53789-12.2741c.65239-.32633,1.37102-.36214,2.13422-.14361l57.43391,16.44548.03428,28.78128,11.4609-.01053.00018-10.99901c.19723-.67232.83454-1.31327,1.66193-1.31327l42.38619.00012c.69916,0,1.60274.63851,1.60532,1.32107l.0416,11.00334,9.75255-.03502.06421-37.5993,21.75958-10.14749c1.07842-.50292,2.00791-.72839,3.09464-.0419l38.32879,15.68657c.54193.22179,1.13391,1.37999,1.13386,1.9208l-.00431,55.46545-6.739,2.65273.00716-54.92157-34.12952-13.97163-16.79117,7.77991-.0047,97.41612-6.71605-2.02424.03717-55.43517-15.46893-.01085c-.43768-.00031-.86291-.49753-.96648-.93912l-.02376-11.47346-32.32721-.00569-.01527,11.199c-.03079.36908-.69378,1.20185-1.13174,1.20282l-17.0353.03779.0034,56.89753-6.69588,1.87971-.0158-89.10082-48.71062-13.75761.01906,107.38769-.13399,70.38467c-2.31182.73368-4.47066,1.37324-6.81382,1.85006l.00436-178.09904-15.77319,7.60115-.003,181.99182Z" fill="#001139"/>
  <path d="M148.5778,270.01991c-24.15969-9.89152-47.01303-27.75422-56.35505-52.52818-2.01013-5.33063-3.85887-10.74209-3.87512-16.53567l-.12539-44.7091c22.4471-4.84711,41.30131-10.02747,60.30214-23.14426,10.35976,6.33101,21.20191,11.36446,32.71231,15.08492,8.70491,2.81365,17.34321,5.15653,26.26697,7.55351l-.05335,44.66725c-.00624,5.22399-1.31409,9.90492-2.8266,14.79574-9.23188,26.25567-30.78565,43.99434-56.04591,54.81578ZM148.53577,262.70046c21.37697-9.6297,39.36071-24.37692,48.42548-46.12875,1.7778-5.02175,3.76571-9.88277,3.77958-15.3311l.10208-40.08626-19.11828-5.53788c-11.65245-3.3753-22.60312-8.31392-33.05212-14.59097-16.93133,11.32416-33.9029,16.3597-53.75393,20.86484l.03478,37.71919c.00466,5.05618,1.487,9.57761,3.04855,14.25808,8.49194,23.0179,28.34871,39.19865,50.53386,48.83285Z" fill="#001139"/>
  <path d="M234.85028,258.66032l26.45184-9.38911,16.32073-5.93457-25.26188-5.74595-23.25469-5.32627,7.69405-4.06963,10.51935,2.01964.9626-42.46357-15.64005-16.99914,4.21959-3.98457,11.29567,11.64271.1884-19.38354c.0035-.36.47502-.97326.67377-1.0204l5.42639.07654.06966,20.29205,11.35174-11.5562,4.24216,3.94827-15.66864,16.74143.26651,20.51326.38536,23.8235,44.90714,10.32307-63.50154,22.98003-63.61943-.00273,8.59606-6.49134,53.3752.0065Z" fill="#001139"/>
  <polygon points="251.28396 115.46497 237.63866 121.02988 231.42418 129.20785 229.61975 143.81095 222.99715 153.75814 221.87962 172.35055 232.08836 184.85654 243.21752 189.22495 241.84826 195.32544 228.1675 189.97254 215.57113 174.50429 216.95683 151.71153 223.73162 141.50184 225.58199 126.84776 233.88752 115.85556 251.16703 108.91867 269.26935 114.94528 280.58728 128.67994 281.8173 142.20714 288.6465 152.04298 288.64678 174.27372 274.07915 190.70208 260.65013 195.37902 259.39427 189.31964 270.73328 185.18634 282.32422 172.16229 282.43528 153.9729 275.73104 144.17121 274.55931 131.064 265.76243 120.39207 251.28396 115.46497" fill="#001139"/>
  <polygon points="170.03895 104.86652 124.31607 104.87466 124.30796 96.08638 169.94779 96.08867 170.03895 104.86652" fill="#001139"/>
  <polygon points="170.05176 124.08448 124.2903 124.10257 124.2933 115.30171 169.95408 115.2796 170.05176 124.08448" fill="#001139"/>
  <polygon points="221.20348 122.05405 209.32538 122.0563 209.34223 108.20978 221.19546 108.22852 221.20348 122.05405" fill="#001139"/>
  <polygon points="221.21197 73.25433 209.30898 73.22066 209.34841 59.50359 221.179 59.49985 221.21197 73.25433" fill="#001139"/>
  <polygon points="221.20712 97.55925 209.32785 97.61481 209.33639 83.87642 221.19373 83.89385 221.20712 97.55925" fill="#001139"/>
  <polygon points="78.94541 78.34244 68.18914 76.37536 68.27578 61.52106 78.95487 63.66139 78.94541 78.34244" fill="#001139"/>
  <path d="M96.75406,135.12627l-9.66437-1.79891.02157-14.72957,10.68503,1.94642.04823,13.69516c.00168.47791-.4915.9984-1.09046.88691Z" fill="#001139"/>
  <polygon points="78.95117 104.98777 68.18753 103.06719 68.21154 88.41425 78.95853 90.35884 78.95117 104.98777" fill="#001139"/>
  <path d="M97.84234,81.17505c.00059.26384-.49234.91678-.78064.86013l-9.99784-1.9644.00543-14.59525,10.74262,2.02285.03043,13.67667Z" fill="#001139"/>
  <path d="M97.83972,107.37166c.00094.35171-.10343.90394-.27527.98769-.21482.10469-.74273.15748-1.01215.10718l-9.48004-1.76991-.00856-14.61837,10.7402,1.87022.03582,13.42319Z" fill="#001139"/>
  <polygon points="78.91917 131.68575 68.18625 129.80682 68.21525 115.20894 78.96198 117.06041 78.91917 131.68575" fill="#001139"/>
  <path d="M148.5907,238.49039l-6.24741-6.02811-23.8593-23.6369c-3.08962-3.06082-4.73456-7.20306-5.63126-11.36952-1.67216-7.76959,1.11011-15.58521,7.03099-20.68622,8.81738-7.26692,20.77531-5.78717,28.51611,2.42569,4.67896-5.09722,11.05732-7.79037,17.83359-7.00164,9.62244,1.12002,16.8076,8.87002,17.73402,18.47915.63576,6.59436-1.50939,12.81032-5.76432,17.94915l-29.61244,29.86839ZM177.45215,190.78724c-.75278-6.20125-5.1667-10.90484-11.091-12.00929-4.69735-.87571-9.38093.85555-12.68291,4.16491l-5.28501,5.29682c-2.19148-2.1031-4.12131-4.21111-6.39914-6.17498-4.0884-3.52488-9.65342-4.55675-14.75077-2.33645-4.35167,1.8955-7.53076,6.10017-8.26933,11.33302-.40197,4.79658.826,10.06009,4.47854,13.65851l25.03194,24.66109,24.84397-25.08488c3.46291-3.49649,4.70929-8.68498,4.12372-13.50874Z" fill="#001139"/>
</svg>